<?xml version="1.0" encoding="utf-8"?>
<!-- Generator: Adobe Illustrator 24.2.3, SVG Export Plug-In . SVG Version: 6.00 Build 0)  -->
<svg version="1.1" id="Ebene_1" xmlns="http://www.w3.org/2000/svg" xmlns:xlink="http://www.w3.org/1999/xlink" x="0px" y="0px"
	 viewBox="0 0 1000 622" style="enable-background:new 0 0 1000 622;" xml:space="preserve">
<g>
	<path d="M470.14,588.94c-0.03-4.04-0.03-7.88-0.03-11.72c-0.39-0.39-0.73-0.85-1.18-1.14c-0.41-0.27-0.95-0.48-1.43-0.48
		c-17.46-0.02-34.91-0.02-53.02-0.02c-0.19-3.22-0.34-5.81-0.5-8.42c-0.39-0.39-0.72-0.88-1.18-1.13c-0.43-0.24-1-0.31-1.51-0.31
		c-48.8-0.01-97.61-0.01-146.41-0.05c-0.43,0-0.86-0.54-1.75-1.14c-0.18-3.35-0.38-7.04-0.57-10.67c-1.05-0.48-1.96-1.24-2.89-1.26
		c-6.03-0.11-12.06-0.06-18.11-0.06c-4.25,3.35-0.14,8.34-2.35,12.09c-0.4,0.36-0.77,0.96-1.21,1.02c-1.08,0.15-2.19,0.05-3.28,0.05
		c-8.76,0-17.52,0-26.92,0c-0.53,2.99-1.06,6-1.67,9.52c-3.67,0.21-7.36,0.42-11.05,0.63c-0.46,0.92-1.16,1.79-1.31,2.75
		c-0.49,3.13,0.81,6.46-1.18,9.8c-22.16,0-44.48,0-66.8,0c-2.3-3.62-0.87-7.5-1.12-11.18c-0.22-3.27-0.05-6.58-0.05-9.87
		c-2.05-2.67-4.98-1.6-7.54-1.6c-27.97-0.07-55.93-0.04-83.9-0.04c-3.2,0-6.4,0-9.07,0c-0.85-1.08-1.46-1.5-1.46-1.91
		c-0.06-6.55-0.04-13.11-0.04-20.31c3.1-0.5,6.11-0.99,9.67-1.57c0-11.45,0-22.82,0-33.84c4-2.9,7.92-1.07,11.62-1.62
		c3.59-3.04,1.33-7.11,1.66-10.69c0.35-3.73,0.08-7.51,0.08-10.73c2.86-2.93,5.85-0.62,9.17-2.55c-0.46,0.46,0.26,0.08,0.27-0.32
		c0.28-10.26,0.49-20.53,0.72-31.26c4.15-0.24,7.84-0.45,11.57-0.66c2.74-3.38,0.83-7.32,1.29-10.97c0.47-3.69-0.93-7.55,1.08-11.41
		c1.44-0.12,3.01-0.22,4.56-0.39c1.03-0.11,2.06-0.31,3.14-0.49c2.27-3.47,0.67-7.36,1.1-11.03c-0.87-0.55-1.73-1.55-2.61-1.56
		c-6.49-0.13-12.99-0.07-20.04-0.07c0,4.36,0,8.04,0,11.41c-1.48,0.79-2.37,1.68-3.27,1.69c-9.76,0.1-19.51,0.06-29.63,0.06
		c0-12.23,0-23.59,0-34.95c2.26-2.41,5.18-0.67,8.47-1.42c0.5-2.68,1.06-5.66,1.61-8.65c0.41-0.35,0.81-1,1.21-1
		c6.56-0.06,13.13-0.04,19.59-0.04c3.82-3.62-0.14-8.59,2.71-12.71c6.62-1.22,13.69,0.21,21.13-0.83c0.26-1.33,0.62-2.81,0.81-4.32
		c0.13-1.08,0.03-2.19,0.03-3.29c0.79-0.63,1.56-1.79,2.37-1.81c6.51-0.15,13.03-0.08,19.26-0.08c2.55-3.98,0.96-7.87,1.44-11.54
		c0.87-0.54,1.74-1.53,2.62-1.55c6.49-0.13,12.98-0.07,20.03-0.07c0.22-3.25,0.4-5.84,0.58-8.49c3.32-2.9,7.28-1.07,10.93-1.31
		c4.37-0.29,8.77-0.07,13.16-0.07c3.74,0,7.48,0,11.53,0c0.23-4.56,0.41-8.25,0.59-11.86c1.11-0.49,2.03-1.23,2.96-1.25
		c6.03-0.11,12.06-0.05,18.77-0.05c0.54-2.86,1.11-5.85,1.68-8.84c0.41-0.34,0.76-0.83,1.23-0.99c0.49-0.17,1.08-0.04,1.63-0.04
		c9.3,0,18.61,0,27.8,0c3.8-3.64-0.16-8.61,2.49-12.39c3.57-1.59,7.4-0.58,11.13-0.74c3.83-0.16,7.68-0.04,11.51-0.04
		c3.79,0,7.59,0,11.03,0c2.84-2.53,1.11-5.46,1.68-8.02c-3.32-4.3-8.29-0.28-12.11-2.41c-2.2-3.46-0.67-7.32-1.03-11.01
		c3.48-3.84,8.44,0.09,12.82-2.71c0.16-2.15,0.35-4.75,0.54-7.35c0.9-0.47,1.8-1.34,2.71-1.35c9.32-0.1,18.64-0.05,27.97-0.1
		c0.42,0,0.84-0.57,1.71-1.2c0.16-3.34,0.34-7.03,0.51-10.63c1.13-0.49,2.06-1.24,2.99-1.25c25.77-0.06,51.55-0.05,77.97-0.05
		c0.55-2.87,1.12-5.86,1.69-8.85c0.41-0.34,0.78-0.92,1.23-0.97c1.08-0.14,2.19-0.05,3.28-0.05c77.85,0,155.7,0,233.45,0
		c3.64-3.66,0.33-8.5,1.83-11.93c1.02-0.67,1.42-1.06,1.9-1.2c0.51-0.14,1.09-0.03,1.64-0.03c1.1,0,2.19,0,3.29,0
		c31.8,0,63.61,0,95.41-0.01c0.51,0,1.01-0.19,1.53-0.3c2.49-2.2,0.76-5.13,1.32-7.67c0.79-0.63,1.57-1.8,2.37-1.81
		c25.16-0.1,50.31-0.08,74.99-0.08c2.74,2.81,1.05,5.69,1.72,8.85c-3.03,0.57-6.04,1.13-9.08,1.69c-1.77,3.61-0.76,7.37-0.69,11.07
		c0.9,0.48,1.8,1.35,2.71,1.36c9.75,0.1,19.51,0.06,29.63,0.06c0.23-4.56,0.41-8.25,0.59-11.86c1.11-0.49,2.03-1.24,2.96-1.25
		c10.42-0.08,20.84-0.05,31.46-0.05c2.55,3.82,1.51,7.99,1.05,12.1c-3.64,2-7.51,0.55-11.85,1.31c-0.47,2.78-0.99,5.8-1.55,9.14
		c-2.64,0.27-5.24,0.54-8.25,0.85c-1.44,3.98-1.21,8.05-0.21,12.47c38,0,75.67,0,113.28,0c2.33-3.68,0.74-7.56,1.24-11.23
		c2.71-2.85,5.83-1.63,8.91-0.9c0.31,0.42,0.89,0.84,0.89,1.26c0.06,6.55,0.04,13.1,0.04,19.49c-3.55,3.08-7.51,1.19-11.16,1.51
		c-3.27,0.28-6.58-0.08-9.86,0.1c-3.72,0.2-7.55-0.92-11.58,1.03c-0.17,3.51-0.35,7.19-0.53,10.79c-1.12,0.49-2.05,1.24-2.98,1.25
		c-10.42,0.08-20.84,0.05-31.26,0.05c-1.67,4.13-1.7,4.13-1.11,8.85c0.41,0.34,0.77,0.82,1.23,0.99c0.49,0.17,1.08,0.04,1.63,0.04
		c36.72,0,73.44,0,110.34,0c2.09,4.08,1.53,8.19,0.69,12.67c-2.72,0.28-5.31,0.55-7.96,0.82c-2.61,2.17-0.39,5.19-1.84,8.12
		c-0.22,0.17-1.02,1.33-1.82,1.34c-18.1,0.1-36.19,0.08-54.29,0.08c-3.77,0-7.53,0-11.01,0c-2.55,4.01-1.02,7.88-1.38,11.55
		c0.87,0.54,1.74,1.52,2.63,1.54c6.49,0.13,12.98,0.07,19.99,0.07c0.24,3.27,0.43,5.86,0.62,8.51c3.33,2.86,7.28,0.99,10.93,1.3
		c3.27,0.28,6.58,0.06,9.87,0.06c3.74,0,7.47,0,11.5,0c0,7.87,0,14.84,0,21.75c-0.45,0.45-0.78,0.98-1.24,1.19
		c-0.46,0.2-1.06,0.09-1.61,0.09c-9.32,0-18.64,0-28.62,0c-0.55-2.87-1.12-5.86-1.7-8.85c-0.41-0.34-0.81-0.98-1.22-0.98
		c-10.95-0.05-21.9-0.04-32.72-0.04c-2.72,2.93-1.8,5.98-0.8,9.09c3.61,1.58,7.44,0.56,11.17,0.74c3.24,0.16,6.49,0.03,9.53,0.03
		c2.87,3.73,1.19,7.65,1.45,11.32c0.26,3.71,0.06,7.45,0.06,11.67c-7.98,0-14.96,0-21.61,0c-2.51,4.07-0.95,7.95-1.57,12.27
		c-2.8,0.51-5.81,1.06-9.36,1.71c-0.94,6.87,0.14,13.92-0.62,20.92c-3.33,2.83-7.28,1-10.94,1.28c-3.71,0.28-7.47,0.06-11.49,0.06
		c0,3.51,0,6.09,0,8.64c2.32,2.64,5.33,0.25,8.84,2.22c-0.64-0.61,0.1-0.23,0.1,0.14c0.07,6.97,0.05,13.94,0.05,20.83
		c-2.52,2.01-5.27,0.72-8.53,0.98c-0.49-2.97-0.99-5.98-1.55-9.37c-11.46,0-22.81,0-34.25,0c-2.39,2.17-0.66,5.1-1.22,7.64
		c0.81,0.61,1.61,1.73,2.43,1.75c6.51,0.15,13.02,0.08,19,0.08c0.87,0.95,1.55,1.34,1.55,1.74c0.07,6.57,0.05,13.14,0.05,19.67
		c-3.29,3.3-7.3,1.24-10.94,1.55c-3.73,0.31-7.5,0.07-11.72,0.07c-0.24,4.4-0.44,8.09-0.68,12.45c-2.88,0.45-5.9,0.91-9.03,1.4
		c-0.33,2.82-0.63,5.42-0.93,7.99c-3.53,2.4-7.43,0.73-11.1,1.19c-0.56,0.86-1.58,1.71-1.6,2.58c-0.14,6.49-0.07,12.99-0.07,20.05
		c-7.6,0-14.58,0-21.07,0c-3.53,3.87-1.47,7.85-1.93,11.49c-0.47,3.7,0.8,7.54-0.96,11.43c-2.49,0.29-5.08,0.59-7.67,0.88
		c-2.87,3.39-0.06,7.43-2.65,12.77c-1.96,2.51-6.96-1.62-10.74,0.62c-2.16,2.29-0.4,5.19-1.33,8.41c-2.7,0.48-5.71,1.01-9.23,1.63
		c-0.21,3.67-0.42,7.36-0.62,11.05c-3.59,3.34-8.53-0.5-12.41,2.48c-0.28,2.41-0.57,5.01-0.86,7.55c-1.03,0.42-1.97,1.14-2.9,1.15
		c-13.71,0.07-27.42,0.05-41.14,0.05c-3.91,3.46,0.01,8.42-2.32,12.19c-0.41,0.32-0.79,0.78-1.26,0.93
		c-0.5,0.16-1.08,0.04-1.63,0.04c-16.97,0-33.95,0-51.56,0c-0.5,3.1-0.99,6.12-1.53,9.48c-7.11,0-14.07,0-21.56,0
		c-0.24-1.42-0.57-2.91-0.73-4.42c-0.12-1.08-0.02-2.19-0.02-3.29c-0.82-0.59-1.64-1.68-2.48-1.7c-6.5-0.14-13.01-0.08-18.97-0.08
		c-2.7,2.9-0.95,5.8-1.69,8.33c-10.47,2.06-33.6,2.36-58.7,0.74c-0.24-2.53-0.48-5.12-0.72-7.71c-0.39-0.39-0.72-0.89-1.18-1.13
		c-0.44-0.22-1.03-0.21-1.55-0.21c-40.03-0.01-80.06,0-120.09-0.05c-0.42,0-0.83-0.6-1.58-1.19c0-6.7,0-13.67,0-20.49
		c0.54-0.54,0.88-1.2,1.32-1.26c1.07-0.16,2.19-0.05,3.28-0.05C436.12,588.74,453.12,588.74,470.14,588.94
		c0.39,2.89-1,6.19,1.44,9.67c10.33,0,21.07,0.03,31.81-0.06c0.89-0.01,1.78-0.87,2.67-1.33c0.06-2.58,0.96-5.21-0.83-8.07
		C493.7,589.14,481.91,589.14,470.14,588.94z M746.52,506.47c-3.03,0.32-6.19-0.77-9.87,1.27c0,3.69,0,7.79,0,11.9
		c-4.1,0-8.2,0-11.89,0c-2.04,3.68-0.94,6.84-1.27,9.87c-7.38,0-14.76,0-22.04,0c-1.91,4.76-0.51,9.03-0.99,13.16
		c-7.4,0-14.8,0-22.31,0c-0.54,3.71-0.97,6.67-1.38,9.48c-3.2,0.34-5.75,0.6-9.22,0.97c0,4.23,0,8.41,0,12.59
		c-7.37,0-14.73,0-21.69,0c-2.18,3.59-0.98,6.81-1.34,10.28c-15.08,0-30.17,0-45.42,0c-0.85,4.5-1.32,8.56,0.54,12.75
		c13.19,0,26.18,0.01,39.17-0.01c2.07,0,4.33,0.54,5.71-1.81c0-3.75,0-7.55,0-11.35c7.37,0,14.73,0,21.7,0
		c2.18-3.59,0.98-6.81,1.34-9.87c7.4,0,14.8,0,22.49,0c1.55-4.58-1.03-9.16,1.45-12.39c3.02-1.95,6.86,1.06,8.97-2.6
		c0-2.68,0-5.36,0-8.04c7.38,0,14.76,0,22.04,0c1.91-4.76,0.51-9.03,0.99-13.16c4.1,0,8.2,0,11.89,0c2.04-3.68,0.94-6.84,1.27-9.87
		c3.03-0.32,6.19,0.77,9.87-1.27c0-3.69,0-7.79,0-11.88c4.13-0.45,8.38,0.79,12.33-0.59c0.97-3.31,1.84-6.3-0.77-9.3
		c-2.94,0-6.11-0.12-9.26,0.09c-0.8,0.05-1.53,1.16-2.29,1.79C746.52,501.14,746.52,503.81,746.52,506.47z M506.33,542.69
		c-0.47-4.16,0.81-8.43-0.69-12.63c-4.31-0.65-8.35-1.3-12.13,0.49c0,3.96,0,7.57,0,11.37c4.4,1.57,8.67,0.3,12.81,0.75
		c0.43,3.12-1.01,6.46,1.09,9.37c37.26,1.51,58.4,1.14,68.01-1.17c0-2.73,0-5.47-0.02-8.2c3.08-0.37,6.31,0.87,9.41-1.09
		c0.55-3.92,1.25-7.95-0.55-11.71c-2.89,0-5.41,0-8.1,0c-1.54,4.41-0.3,8.66-0.74,12.79c-6.54,0-13.08,0.04-19.62-0.05
		c-0.95-0.01-1.89-0.66-2.83-1.02c-2.16-3.77,1.75-8.69-2.27-12.1c-3.28,0-6.56-0.17-9.82,0.05c-3.67,0.24-7.51-1.13-10.92,0.94
		c-2.18,3.89,1.82,8.81-2.36,12.17C520.48,542.67,513.4,542.67,506.33,542.69z M575.94,414.34c14.83,0,28.54,0.02,42.25-0.05
		c0.94,0,1.88-0.72,2.91-1.14c0.29-2.55,0.58-5.14,0.99-8.68c3.72,0,7.47,0.21,11.18-0.06c3.66-0.27,7.59,1.49,10.98-1.25
		c0.21-3.73,0.42-7.42,0.65-11.36c7.75-1.49,15.42,0.77,21.58-0.96c2.07-3.56-0.24-6.54,2.09-8.82c3.03-0.55,6.01-1.1,8.74-1.59
		c0.65-4.42-1.17-8.35,1.4-11.9c3.66-0.19,7.35-0.39,10.86-0.58c1.88-4.06,0.59-7.91,1.06-11.6c0.46-3.64-1.58-7.61,1.38-10.91
		c2.65-0.16,5.24-0.31,8.46-0.49c0-10.43,0.04-20.22-0.07-30c-0.01-0.87-1.03-1.74-1.58-2.6c-2.55-0.6-5.45,1.15-8.32-1.73
		c0-3.11,0-6.79,0-10.02c-1-0.77-1.41-1.37-1.83-1.37c-21.38-0.05-42.77-0.04-64.15-0.05c-0.52,0-1.11,0.01-1.55-0.22
		c-0.46-0.23-0.79-0.74-1.18-1.13c-0.24-2.6-0.48-5.19-0.78-8.52c-26.59,0-52.8-0.02-79.01,0.06c-0.89,0-1.77,0.96-2.65,1.47
		c-0.75,2.53,1,5.43-1.7,8.33c-16.93,0-34.39,0-51.86,0.02c-0.47,0-1,0.28-1.4,0.56c-0.43,0.31-0.73,0.78-1.09,1.18
		c-0.53,3.65,1.26,7.57-1.58,11.58c-6.64,0-13.61,0-20.17,0c-0.7,1.01-1.24,1.43-1.25,1.86c-0.06,6.03-0.1,12.06,0.03,18.09
		c0.02,0.91,0.89,1.8,1.37,2.7c2.61,0.17,5.2,0.33,7.65,0.49c0.69,3.67,1.26,6.68,1.8,9.59c3.91,0,7.21-0.17,10.48,0.05
		c3.69,0.25,7.56-1.17,11.62,1.38c0,3.38,0,7.07,0,10.3c0.99,0.78,1.4,1.39,1.82,1.39c6.03,0.06,12.06-0.01,18.09,0.1
		c0.92,0.02,1.82,0.83,2.73,1.29c0.25,2.59,0.49,5.19,0.7,7.43c4.19,2.86,9.15-1.09,12.65,2.62c0.61,3.67-0.88,7.55,1.45,11.64
		c6.2,0,12.71-0.06,19.21,0.08c0.84,0.02,1.66,1.1,2.48,1.7c0,1.1-0.09,2.2,0.02,3.29c0.16,1.51,0.48,3,0.72,4.38
		c3.1,0.37,5.69,0.67,8.07,0.95c2.92,3.94-1.04,8.91,3.07,13.03c3.12,0,6.8,0,10.59,0C575.21,408,575.51,410.59,575.94,414.34z
		 M392.79,496.6c-4.45-3.51,1.47-9.81-3.52-13.15c-3.66-0.57-7.6,1.38-10.96-1.27c-0.27-2.67-0.53-5.25-0.79-7.89
		c-3.33-0.56-6.35-1.07-8.77-1.48c-1.53-4.35,0.6-8.29-2.03-12.41c-2.77,0-5.98,0.12-9.18-0.08c-0.89-0.05-1.72-1.04-1.91-1.17
		c-1.67-2.92,0.75-5.92-1.87-8.25c-2.55-0.29-5.14-0.59-7.55-0.86c-2.95-3.88,0.85-8.81-2.47-12.41c-3.67-0.21-7.36-0.42-11.81-0.67
		c0-6.89,0.06-13.36-0.07-19.83c-0.02-0.9-0.93-1.78-1.43-2.66c-2.59-0.11-5.18-0.23-7.58-0.33c-0.73-3.81-1.3-6.81-1.85-9.68
		c-11.58,0-22.53-0.01-33.47,0.05c-0.38,0-0.75,0.74-1.29,1.3c-1.58,2.46,1.46,6.42-2.22,8.51c-2.58,0.57-5.51-1.16-8.26,1.95
		c0,14.02,0,28.66,0,42.87c-4.25,3.1-9.2-0.83-12.93,2.89c0,6.36-0.02,12.9,0.04,19.44c0,0.42,0.58,0.84,0.9,1.25
		c3.75,2.38,8.7-1.52,12.18,2.29c0.52,3.68-1.04,7.55,1.07,10.98c2.74,1.83,6.7-1.2,8.84,2.39c0.58,2.57-1.16,5.49,1.4,7.83
		c3.57,0.19,7.25,0.39,10.57,0.57c3.04,4.16-0.89,9.11,2.83,12.85c13.47,0,27.13,0,40.79,0c0.55,0,1.13-0.12,1.63,0.03
		c0.47,0.14,0.86,0.57,1.37,0.94c0.52,2.92,1.06,5.93,1.59,8.9c18.13,0,35.64,0.01,53.14-0.04c0.41,0,0.81-0.64,1.85-1.5
		c0-9.23,0.04-19-0.07-28.77c-0.01-0.87-1.03-1.73-1.59-2.59C397.17,496.6,394.98,496.6,392.79,496.6z M746.52,322.54
		c0,11.18,0,21.05,0,30.92c0,1.1-0.11,2.21,0.05,3.28c0.07,0.44,0.72,0.78,1.7,1.75c3.08,0,6.76,0,11.72,0
		c-0.97,7.94,0.57,15.33-0.88,22.62c-4.48,0.25-8.17,0.46-12.31,0.7c-0.23,10.74-0.44,21-0.72,31.26c-0.01,0.4-0.73,0.78-0.27,0.32
		c-3.32,1.93-6.31-0.38-9.17,2.55c0,13.63,0.01,27.81-0.02,41.99c0,0.47-0.28,0.99-0.57,1.39c-0.31,0.42-0.78,0.73-1.18,1.08
		c-3.65,0.53-7.57-1.28-11,1.18c0,7.05,0,14.02,0,21.18c4.51,0.92,8.61,1.35,12.56-0.47c0.17-2.89,0.33-5.49,0.49-8.16
		c3.25-0.4,5.85-0.68,8.43-1.09c0.44-0.07,0.78-0.73,1.17-1.12c0-6.58-0.02-13.16,0.05-19.74c0-0.39,0.73-0.77,1.7-1.75
		c3.08,0,6.76,0,9.99,0c3.26-4.26-0.57-9.2,2.76-12.78c2.62-0.24,5.21-0.47,8.53-0.77c0-6.84-0.06-13.33,0.07-19.81
		c0.02-0.89,0.96-1.77,1.24-2.24c3.85-1.49,7.81,0.82,11.85-1.96c0-21.46,0.02-43.31-0.08-65.16c0-0.83-1.11-1.65-1.7-2.47
		c-3.65-0.53-7.57,1.28-11-1.19c-0.31-2.66-0.62-5.25-0.94-7.99c-3.2-0.52-6.21-1-9.7-1.57c0-4.26,0-7.94,0-11.95
		C755.05,322.54,751.36,322.54,746.52,322.54z M206.53,497.61c-4.91-2.09-8.89,0.42-12.92-2.6c0-3.26,0-6.93,0-10.82
		c-3.55-0.54-6.57-1.01-9.77-1.5c0-3.87,0-7.12,0-10.37c0-3.84,0.13-7.68-0.04-11.51c-0.14-3.17,0.81-6.46-0.79-9.48
		c-3.78-2.55-8.75,1.4-12.34-2.44c0-13.07,0-26.21,0-39.36c0-1.1,0.1-2.21-0.05-3.28c-0.06-0.44-0.66-0.81-1.69-1.97
		c-2.21,1.53-5.65-1.75-8.12,1.97c-0.58,2.54,1.16,5.46-1.39,7.83c-3.55,0.19-7.24,0.39-10.78,0.58c-0.42,1.43-0.95,2.41-0.95,3.39
		c-0.04,32.9-0.04,65.8-0.02,98.7c0,0.51,0.07,1.08,0.31,1.51c0.25,0.46,0.75,0.79,1.32,1.37c18.43,0,37.04,0.01,55.66-0.04
		c0.42,0,0.83-0.6,1.58-1.19C206.53,511.71,206.53,504.74,206.53,497.61z M575.11,589.81c-15.77-1.48-43.92-1.44-58.63,0.06
		c0,2.55,0,5.12,0,7.67c15.77,1.48,43.92,1.44,58.63-0.06C575.11,594.93,575.11,592.35,575.11,589.81z M447.38,541.52
		c3.79,2.19,7.63,0.93,11.3,1.11c4.35,0.21,8.73,0.22,13.08,0c3.67-0.19,7.51,1.14,11.23-1.13c0-3.6,0-7.26,0-10.83
		c-3.79-2.19-7.63-0.93-11.3-1.11c-4.35-0.21-8.73-0.22-13.08,0c-3.67,0.19-7.51-1.14-11.23,1.13
		C447.38,534.29,447.38,537.95,447.38,541.52z M139.01,552.54c-1.88,4.4-1.96,8.79,0.08,13.27c2.94-0.69,5.8,1.04,8.16-1.33
		c0.26-4.01,1.47-8.18-1.14-11.94C143.75,552.54,141.58,552.54,139.01,552.54z"/>
	<path d="M216.33,115c-7.71,0-14.7,0-22.23,0c0,4.25,0,7.92,0,11.3c-1.47,0.8-2.36,1.68-3.27,1.7c-6.03,0.13-12.06,0.05-18.09,0.1
		c-0.43,0-0.86,0.54-1.56,1.01c-0.28,2.38-0.58,4.97-0.88,7.56c-0.93,0.42-1.85,1.19-2.78,1.21c-6.03,0.11-12.06,0.06-18.1,0.06
		c-4.26,3.35-0.15,8.33-2.42,12.2c-3.45,2.01-7.31,0.68-11,0.92c-3.26,0.21-6.55,0.04-10.46,0.04c-0.53,2.98-1.07,6-1.68,9.48
		c-2.56,0.22-5.16,0.44-7.78,0.67c-3.11,3.61-0.26,8.37-1.83,12.77c-7.41,0-14.39,0-20.79,0c-2.91,2.86-1.16,5.76-1.76,8.35
		c-3.14,3.38-7.18,1.24-10.79,1.56c-3.72,0.33-7.49,0.07-11.81,0.07c0,4.33,0,8.01,0,11.37c-1.47,0.81-2.36,1.71-3.26,1.73
		c-6.03,0.13-12.06,0.05-18.09,0.1c-0.43,0-0.86,0.53-1.6,1.01c-0.27,2.36-0.56,4.95-0.86,7.61c-3.4,2.55-7.32,0.74-10.98,1.21
		c-3.68,0.46-7.55-1-11.66,1.3c0,3.42,0,7.1,0,10.51c-4.09,2.43-7.95,1.08-11.64,1.32c-3.27,0.21-6.56,0.04-10.01,0.04
		c-2.24-3.98-1.54-8.11-0.77-12.79c2.65-0.21,5.25-0.42,8.52-0.67c0.45-2.88,0.92-5.91,1.44-9.27c3.87-0.18,7.56-0.35,11.11-0.51
		c2.56-3.68,0.85-7.58,1.4-11.9c2.79-0.54,5.79-1.11,9.58-1.84c0.11-2.41,0.24-5,0.36-7.59c0.89-0.5,1.77-1.4,2.68-1.42
		c6.03-0.13,12.06-0.05,18.09-0.1c0.44,0,0.87-0.52,1.78-1.11c0.19-3.35,0.39-7.04,0.6-10.73c3.47-2.65,7.4-0.82,11.05-1.28
		c3.68-0.46,7.55,0.98,11.27-1.07c0.28-2.54,0.56-5.13,0.84-7.67c3.63-2.23,7.51-0.67,11.19-1.2c3.81-3.48-0.12-8.44,2.69-12.79
		c2.17-0.17,4.76-0.37,8.04-0.62c0.45-2.87,0.92-5.9,1.47-9.43c7.12,0,14.11,0,20.7,0c2.85-4.02,1.11-7.93,1.58-11.59
		c3.42-4.03,8.35-0.25,12.73-2.47c0-2.46,0-5.04,0-7.3c1.47-0.82,2.35-1.74,3.25-1.76c6.47-0.12,12.95-0.07,19.82-0.07
		c0.25-4.48,0.46-8.17,0.67-11.79c2.27-2.54,5.2-0.81,7.74-1.37c3.76-2.11,0.59-6.11,2.46-8.82c0.32-0.3,0.71-0.99,1.11-1
		c6.57-0.07,13.15-0.05,19.68-0.05c0.43-0.43,1.12-0.79,1.16-1.21c0.36-3.68,0.6-7.38,0.85-10.76c0.78-0.57,1.16-1.01,1.63-1.16
		c0.5-0.16,1.09-0.03,1.63-0.03c10.39,0,20.77,0,31.79,0c0.5-3.14,0.97-6.15,1.53-9.71c7.11,0,14.08,0,20.74,0
		c2.78-4.02,1.03-7.93,1.65-12.28c6.93-2.88,14.69,0.4,21.88-1.62c2.15-2.34,0.4-5.25,1.45-8.68c4.82-1.32,10.23-0.44,15.53-0.58
		c5.38-0.15,10.77-0.03,16.57-0.03c0.25-4.45,0.46-8.14,0.67-11.81c0.94-0.46,1.85-1.29,2.77-1.29c12.61-0.09,25.22-0.04,37.83-0.08
		c1.53-0.01,3.05-0.34,4.67-0.53c0.34-2.99,0.63-5.58,0.92-8.12c1.04-0.42,1.98-1.14,2.92-1.14c18.09-0.07,36.18-0.05,54.3-0.05
		c3.74-3.49,0.31-8.36,1.89-11.86c0.83-0.65,1.24-1.26,1.65-1.26c63.57-0.04,127.14-0.04,190.6-0.04c3.8,3.64-0.16,8.61,2.44,12.33
		c0.43,0.28,0.83,0.67,1.31,0.8c0.51,0.14,1.09,0.03,1.64,0.03c36.18,0,72.36,0,108.54,0.01c0.51,0,1.01,0.18,2.2,0.41
		c0.43,2.8,0.89,5.83,1.43,9.35c19.24,0,38.28,0,56.97,0c2.69,4.04,1.05,7.93,1.51,11.67c0.36,0.34,0.7,0.79,1.16,1.08
		c0.42,0.26,0.95,0.49,1.43,0.49c17.45,0.02,34.91,0.02,53.08,0.02c0.17,3.21,0.3,5.8,0.44,8.44c3.29,3.01,7.26,1.12,10.91,1.37
		c4.36,0.3,8.77-0.06,13.15,0.11c3.72,0.14,7.55-0.86,11.63,0.97c0.19,3.5,0.4,7.19,0.6,10.8c2.29,2.71,5.3,0.45,9.41,2.55
		c1.77,1.3-0.06,4.55-0.35,7.58c-0.4,0.37-0.79,1.05-1.19,1.05c-14.25,0.05-28.49,0.05-43.36,0.05c-0.54-2.96-1.08-5.97-1.62-8.9
		c-0.5-0.36-0.89-0.79-1.36-0.94c-0.5-0.15-1.09-0.03-1.63-0.03c-21.35,0-42.7,0-63.83,0c-3.68-3.78,0.24-8.74-2.96-13
		c-29.56,0-59.56,0-88.95,0c-3.23-2.78-0.9-5.79-2.47-8.72c-0.21-0.15-1.04-1.24-1.87-1.25c-55.37-0.08-110.74-0.07-166.1-0.05
		c-0.47,0-0.94,0.34-1.45,0.54c-2.2,2.29-0.45,5.2-1.14,7.73c-0.39,0.39-0.77,1.11-1.16,1.12c-19.03,0.28-38.06,0.49-57.65,0.72
		c-0.21,4.13-0.41,7.81-0.6,11.5c-0.9,0.47-1.8,1.34-2.71,1.34c-19.73,0.08-39.47,0.03-59.2,0.1c-2.06,0.01-4.34-0.85-6.43,1.04
		c-0.28,2.38-0.59,4.97-0.9,7.55c-0.97,0.42-1.89,1.18-2.82,1.18c-16.99,0.07-33.99,0.05-51,0.05c-4.15,3.38-0.11,8.36-2.34,12.12
		c-0.4,0.35-0.76,0.84-1.23,1.01c-0.49,0.17-1.08,0.04-1.63,0.04c-13.69,0-27.38,0-41.71,0c-0.52,3.01-1.04,6.02-1.56,9
		c-3.73,1.71-7.56,0.67-11.28,0.83c-3.83,0.17-7.67,0.04-11.51,0.04c-3.8,0-7.59,0-11.14,0c-3.58,3.87,0.24,8.81-3.02,13.07
		c-6.52,0-13.49,0-19.9,0C215.59,107.8,217.34,110.7,216.33,115z"/>
</g>
</svg>
