<?xml version="1.0" encoding="utf-8"?>
<!-- Generator: Adobe Illustrator 24.2.3, SVG Export Plug-In . SVG Version: 6.00 Build 0)  -->
<svg version="1.1" id="Ebene_1" xmlns="http://www.w3.org/2000/svg" xmlns:xlink="http://www.w3.org/1999/xlink" x="0px" y="0px"
	 viewBox="0 0 1000 206" style="enable-background:new 0 0 1000 206;" xml:space="preserve">
<style type="text/css">
	.st0{clip-path:url(#SVGID_2_);fill:none;stroke:#000000;stroke-width:5;}
</style>
<g>
	<defs>
		<rect id="SVGID_1_" x="273" y="41.37" width="454" height="123.26"/>
	</defs>
	<clipPath id="SVGID_2_">
		<use xlink:href="#SVGID_1_"  style="overflow:visible;"/>
	</clipPath>
	<path class="st0" d="M708.39,77.67c0-10.45-5.9-17.69-14.74-17.69c-9.65,0-15.81,10.18-15.81,15.28c0,3.75,1.88,6.16,3.22,8.04
		c1.61,2.14,3.22,5.36,3.22,10.45c0,11.79-11.26,28.14-45.56,28.14c-22.51,0-40.2-4.02-66.74-13.13
		c-27.07-9.11-75.58-27.34-97.83-34.04c-16.62-4.82-46.64-13.94-73.97-13.94c-20.64,0-49.32,4.29-75.58,23.05
		c-28.41,20.37-32.97,35.91-32.97,44.22c0,9.92,6.7,17.96,15.55,17.96c4.56,0,16.62-3.75,16.62-15.01c0-3.22-1.61-5.63-3.22-7.5
		c-2.41-2.95-3.48-6.43-3.48-11.26c0-5.9,2.95-13.4,10.72-20.37c7.5-6.43,25.73-14.47,49.32-14.47c30.82,0,54.41,5.36,83.09,14.74
		c47.44,15.81,74.24,25.19,90.32,31.09c22.25,8.04,47.71,15.55,71.83,15.55c17.69,0,35.11-4.82,50.92-15.01
		C697.4,108.49,708.39,90,708.39,77.67z"/>
</g>
</svg>
