<?xml version="1.0" encoding="utf-8"?>
<!-- Generator: Adobe Illustrator 24.2.3, SVG Export Plug-In . SVG Version: 6.00 Build 0)  -->
<svg version="1.1" id="Ebene_1" xmlns="http://www.w3.org/2000/svg" xmlns:xlink="http://www.w3.org/1999/xlink" x="0px" y="0px"
	 viewBox="0 0 1000 304" style="enable-background:new 0 0 1000 304;" xml:space="preserve">
<g>
	<path d="M637.97-314.71c-7.3-6.46-16.73-9.66-28.33-9.66c-8.58,0-15.99,1.3-22.19,3.86c-6.24,2.57-13.42,6.41-21.57,11.59
		c-9,5.56-17.18,9.73-24.44,12.53c-1.8,0.68-3.69,1.32-5.67,1.87c2.31-0.59,4.52-1.27,6.6-2.06c7.52-2.82,15.56-6.75,24.14-11.89
		c8.15-4.76,15.56-8.37,22.19-10.94c6.67-2.61,14.29-3.89,22.87-3.89c11.15,0,20.17,3.55,27.03,10.62
		c6.5,6.73,9.94,15.25,10.26,25.65c0.04-0.42,0.04-0.87,0.04-1.3C648.91-299.47,645.28-308.3,637.97-314.71z M510.48-272.22
		c7.35,0.3,13.72,1.06,19.13,2.34c-5.35-1.44-11.72-2.27-19.09-2.57C510.5-272.37,510.48-272.31,510.48-272.22z M484.15-272.24
		c-0.7,2.97-1.49,5.9-2.34,8.83c1.17-2.97,2.14-5.99,2.95-9.05c-6.75,0.28-12.85,1.06-18.3,2.38
		C471.82-271.27,477.7-271.99,484.15-272.24z M463.53-296.39c-6.41-2.8-13.29-6.96-20.58-12.53c-6.88-5.18-13.1-9.02-18.69-11.59
		c-5.56-2.57-12.87-3.86-21.87-3.86c-14.61,0-26.82,4.48-36.69,13.51c-9.87,9-14.8,19.75-14.8,32.17c0,0.59,0,1.17,0.04,1.74
		c0.3-11.91,5.24-22.53,14.76-31.85c9.87-9.66,21.47-14.48,34.76-14.48c9.43,0,16.94,1.17,22.53,3.55
		c5.56,2.36,11.81,6.12,18.66,11.28c6.88,5.14,13.74,9.07,20.6,11.89c2.38,0.96,5.01,1.78,7.94,2.46
		C467.78-294.75,465.55-295.52,463.53-296.39z"/>
	<path d="M648.87-287.02c-0.32,11.89-5.24,22.51-14.76,31.83c-9.87,9.66-21.47,14.48-34.76,14.48c-9.43,0-16.94-1.17-22.53-3.55
		c-5.56-2.36-11.81-6.12-18.66-11.28c-6.88-5.14-13.74-9.07-20.6-11.89c-2.34-0.96-4.95-1.76-7.84-2.44
		c2.38,0.64,4.57,1.38,6.56,2.25c6.41,2.8,13.29,6.96,20.58,12.53c6.88,5.18,13.1,9.02,18.69,11.59c5.56,2.57,12.87,3.86,21.87,3.86
		c14.61,0,26.82-4.48,36.69-13.51c9.87-9,14.8-19.75,14.8-32.17C648.91-285.88,648.91-286.45,648.87-287.02z M515.69-291.76
		c0.7-2.97,1.47-5.9,2.31-8.83c-1.17,2.97-2.14,5.99-2.95,9.05c6.75-0.28,12.85-1.06,18.3-2.38
		C528-292.73,522.12-292.03,515.69-291.76z M489.29-291.54c0.02-0.08,0.04-0.15,0.04-0.23c-6.99-0.28-13.1-1-18.37-2.14
		C476.15-292.61,482.26-291.82,489.29-291.54z M433.3-255.53c-8.15,4.76-15.54,8.37-22.19,10.94c-6.67,2.61-14.29,3.89-22.87,3.89
		c-11.15,0-20.17-3.55-27.03-10.62c-6.5-6.73-9.94-15.22-10.26-25.63c-0.04,0.42-0.04,0.85-0.04,1.27
		c0,11.15,3.63,19.98,10.94,26.39c7.3,6.46,16.75,9.66,28.33,9.66c8.58,0,15.99-1.3,22.19-3.86c6.24-2.57,13.42-6.41,21.57-11.59
		c9-5.56,17.18-9.73,24.44-12.53c1.8-0.7,3.69-1.32,5.67-1.87c-2.31,0.59-4.52,1.27-6.6,2.06
		C449.92-264.6,441.88-260.67,433.3-255.53z"/>
	<path d="M648.87-287.02c-0.32,11.89-5.24,22.51-14.76,31.83c-9.87,9.66-21.47,14.48-34.76,14.48c-9.43,0-16.94-1.17-22.53-3.55
		c-5.56-2.36-11.81-6.12-18.66-11.28c-6.88-5.14-13.74-9.07-20.6-11.89c-2.34-0.96-4.95-1.76-7.84-2.44c-0.04,0-0.08-0.02-0.11-0.02
		c-5.35-1.44-11.72-2.27-19.09-2.57c-0.02,0.08-0.04,0.15-0.04,0.23c-1.7,8.07-2.53,15.95-2.53,23.59c0,6.88,0.64,13.82,1.93,20.92
		c1.27,7.07,2.14,11.7,2.57,13.84c2.99,11.15,4.5,21.02,4.5,29.6c0,15.44-4.71,28.33-14.16,38.6c-9.43,10.32-21.23,15.46-35.4,15.46
		c-12,0-21.34-3.33-27.99-9.96c-6.67-6.67-9.98-15.78-9.98-27.37c0-9.45,2.25-18.24,6.75-26.39c4.5-8.13,11.25-18.03,20.28-29.62
		c7.3-9.41,13.31-17.92,18.01-25.4c2.95-4.67,5.39-9.49,7.33-14.42c0.02-0.02,0.02-0.02,0.02-0.04c1.17-2.97,2.14-5.99,2.95-9.05
		c-6.75,0.28-12.85,1.06-18.3,2.38c-0.83,0.17-1.64,0.38-2.42,0.59c-2.31,0.59-4.52,1.27-6.6,2.06
		c-7.52,2.82-15.56,6.75-24.14,11.89c-8.15,4.76-15.54,8.37-22.19,10.94c-6.67,2.61-14.29,3.89-22.87,3.89
		c-11.15,0-20.17-3.55-27.03-10.62c-6.5-6.73-9.94-15.22-10.26-25.63c0.3-11.91,5.24-22.53,14.76-31.85
		c9.87-9.66,21.47-14.48,34.76-14.48c9.43,0,16.94,1.17,22.53,3.55c5.56,2.36,11.81,6.12,18.66,11.28
		c6.88,5.14,13.74,9.07,20.6,11.89c2.38,0.96,5.01,1.78,7.94,2.46c0.25,0.06,0.51,0.13,0.76,0.19c5.18,1.32,11.3,2.1,18.33,2.38
		c0.02-0.08,0.04-0.15,0.04-0.23c1.7-8.07,2.55-15.95,2.55-23.59c0-6.88-0.66-13.82-1.95-20.92c-1.27-7.07-2.14-11.7-2.57-13.84
		c-2.99-11.15-4.5-21.02-4.5-29.6c0-15.44,4.71-28.33,14.16-38.6c9.43-10.32,21.23-15.46,35.4-15.46c12,0,21.34,3.33,27.99,9.96
		c6.67,6.67,9.98,15.78,9.98,27.37c0,9.45-2.25,18.24-6.75,26.39c-4.5,8.13-11.25,18.03-20.28,29.62
		c-7.3,9.41-13.31,17.9-18.01,25.4c-2.95,4.67-5.41,9.49-7.35,14.44v0.02c-1.17,2.97-2.14,5.99-2.95,9.05
		c6.75-0.28,12.85-1.06,18.3-2.38c0.83-0.19,1.64-0.38,2.42-0.59c2.31-0.59,4.52-1.27,6.6-2.06c7.52-2.82,15.56-6.75,24.14-11.89
		c8.15-4.76,15.56-8.37,22.19-10.94c6.67-2.61,14.29-3.89,22.87-3.89c11.15,0,20.17,3.55,27.03,10.62
		C645.11-305.94,648.55-297.43,648.87-287.02z"/>
</g>
<g>
	<g>
		<path d="M183.25-254.71c-7.3-6.46-16.73-9.66-28.33-9.66c-8.58,0-15.99,1.3-22.19,3.86c-6.24,2.57-13.42,6.41-21.57,11.59
			c-9,5.56-17.18,9.73-24.44,12.53c-1.8,0.68-3.69,1.32-5.67,1.87c2.31-0.59,4.52-1.27,6.6-2.06c7.52-2.82,15.56-6.75,24.14-11.89
			c8.15-4.76,15.56-8.37,22.19-10.94c6.67-2.61,14.29-3.89,22.87-3.89c11.15,0,20.17,3.55,27.03,10.62
			c6.5,6.73,9.94,15.25,10.26,25.65c0.04-0.42,0.04-0.87,0.04-1.3C194.18-239.47,190.55-248.3,183.25-254.71z M55.76-212.22
			c7.35,0.3,13.72,1.06,19.13,2.34c-5.35-1.44-11.72-2.27-19.09-2.57C55.78-212.37,55.76-212.31,55.76-212.22z M29.43-212.24
			c-0.7,2.97-1.49,5.9-2.34,8.83c1.17-2.97,2.14-5.99,2.95-9.05c-6.75,0.28-12.85,1.06-18.3,2.38
			C17.09-211.27,22.97-211.99,29.43-212.24z M8.81-236.39c-6.41-2.8-13.29-6.96-20.58-12.53c-6.88-5.18-13.1-9.02-18.69-11.59
			c-5.56-2.57-12.87-3.86-21.87-3.86c-14.61,0-26.82,4.48-36.69,13.51c-9.87,9-14.8,19.75-14.8,32.17c0,0.59,0,1.17,0.04,1.74
			c0.3-11.91,5.24-22.53,14.76-31.85c9.87-9.66,21.47-14.48,34.76-14.48c9.43,0,16.94,1.17,22.53,3.55
			c5.56,2.36,11.81,6.12,18.66,11.28c6.88,5.14,13.74,9.07,20.6,11.89c2.38,0.96,5.01,1.78,7.94,2.46
			C13.05-234.75,10.82-235.52,8.81-236.39z"/>
		<path d="M194.14-227.02c-0.32,11.89-5.24,22.51-14.76,31.83c-9.87,9.66-21.47,14.48-34.76,14.48c-9.43,0-16.94-1.17-22.53-3.55
			c-5.56-2.36-11.81-6.12-18.66-11.28c-6.88-5.14-13.74-9.07-20.6-11.89c-2.34-0.96-4.95-1.76-7.84-2.44
			c2.38,0.64,4.57,1.38,6.56,2.25c6.41,2.8,13.29,6.96,20.58,12.53c6.88,5.18,13.1,9.02,18.69,11.59
			c5.56,2.57,12.87,3.86,21.87,3.86c14.61,0,26.82-4.48,36.69-13.51c9.87-9,14.8-19.75,14.8-32.17
			C194.18-225.88,194.18-226.45,194.14-227.02z M60.96-231.76c0.7-2.97,1.47-5.9,2.31-8.83c-1.17,2.97-2.14,5.99-2.95,9.05
			c6.75-0.28,12.85-1.06,18.3-2.38C73.27-232.73,67.39-232.03,60.96-231.76z M34.56-231.54c0.02-0.08,0.04-0.15,0.04-0.23
			c-6.99-0.28-13.1-1-18.37-2.14C21.42-232.61,27.54-231.82,34.56-231.54z M-21.43-195.53c-8.15,4.76-15.54,8.37-22.19,10.94
			c-6.67,2.61-14.29,3.89-22.87,3.89c-11.15,0-20.17-3.55-27.03-10.62c-6.5-6.73-9.94-15.22-10.26-25.63
			c-0.04,0.42-0.04,0.85-0.04,1.27c0,11.15,3.63,19.98,10.94,26.39c7.3,6.46,16.75,9.66,28.33,9.66c8.58,0,15.99-1.3,22.19-3.86
			c6.24-2.57,13.42-6.41,21.57-11.59c9-5.56,17.18-9.73,24.44-12.53c1.8-0.7,3.69-1.32,5.67-1.87c-2.31,0.59-4.52,1.27-6.6,2.06
			C-4.8-204.6-12.85-200.67-21.43-195.53z"/>
		<path d="M194.14-227.02c-0.32,11.89-5.24,22.51-14.76,31.83c-9.87,9.66-21.47,14.48-34.76,14.48c-9.43,0-16.94-1.17-22.53-3.55
			c-5.56-2.36-11.81-6.12-18.66-11.28c-6.88-5.14-13.74-9.07-20.6-11.89c-2.34-0.96-4.95-1.76-7.84-2.44
			c-0.04,0-0.08-0.02-0.11-0.02c-5.35-1.44-11.72-2.27-19.09-2.57c-0.02,0.08-0.04,0.15-0.04,0.23c-1.7,8.07-2.53,15.95-2.53,23.59
			c0,6.88,0.64,13.82,1.93,20.92c1.27,7.07,2.14,11.7,2.57,13.84c2.99,11.15,4.5,21.02,4.5,29.6c0,15.44-4.71,28.33-14.16,38.6
			c-9.43,10.32-21.23,15.46-35.4,15.46c-12,0-21.34-3.33-27.99-9.96c-6.67-6.67-9.98-15.78-9.98-27.37c0-9.45,2.25-18.24,6.75-26.39
			c4.5-8.13,11.25-18.03,20.28-29.62c7.3-9.41,13.31-17.92,18.01-25.4c2.95-4.67,5.39-9.49,7.33-14.42
			c0.02-0.02,0.02-0.02,0.02-0.04c1.17-2.97,2.14-5.99,2.95-9.05c-6.75,0.28-12.85,1.06-18.3,2.38c-0.83,0.17-1.64,0.38-2.42,0.59
			c-2.31,0.59-4.52,1.27-6.6,2.06c-7.52,2.82-15.56,6.75-24.14,11.89c-8.15,4.76-15.54,8.37-22.19,10.94
			c-6.67,2.61-14.29,3.89-22.87,3.89c-11.15,0-20.17-3.55-27.03-10.62c-6.5-6.73-9.94-15.22-10.26-25.63
			c0.3-11.91,5.24-22.53,14.76-31.85c9.87-9.66,21.47-14.48,34.76-14.48c9.43,0,16.94,1.17,22.53,3.55
			c5.56,2.36,11.81,6.12,18.66,11.28c6.88,5.14,13.74,9.07,20.6,11.89c2.38,0.96,5.01,1.78,7.94,2.46c0.25,0.06,0.51,0.13,0.76,0.19
			c5.18,1.32,11.3,2.1,18.33,2.38c0.02-0.08,0.04-0.15,0.04-0.23c1.7-8.07,2.55-15.95,2.55-23.59c0-6.88-0.66-13.82-1.95-20.92
			c-1.27-7.07-2.14-11.7-2.57-13.84c-2.99-11.15-4.5-21.02-4.5-29.6c0-15.44,4.71-28.33,14.16-38.6
			c9.43-10.32,21.23-15.46,35.4-15.46c12,0,21.34,3.33,27.99,9.96c6.67,6.67,9.98,15.78,9.98,27.37c0,9.45-2.25,18.24-6.75,26.39
			c-4.5,8.13-11.25,18.03-20.28,29.62c-7.3,9.41-13.31,17.9-18.01,25.4c-2.95,4.67-5.41,9.49-7.35,14.44v0.02
			c-1.17,2.97-2.14,5.99-2.95,9.05c6.75-0.28,12.85-1.06,18.3-2.38c0.83-0.19,1.64-0.38,2.42-0.59c2.31-0.59,4.52-1.27,6.6-2.06
			c7.52-2.82,15.56-6.75,24.14-11.89c8.15-4.76,15.56-8.37,22.19-10.94c6.67-2.61,14.29-3.89,22.87-3.89
			c11.15,0,20.17,3.55,27.03,10.62C190.38-245.94,193.82-237.43,194.14-227.02z"/>
	</g>
	<g>
		<path d="M-167.12-254.71c-7.3-6.46-16.73-9.66-28.33-9.66c-8.58,0-15.99,1.3-22.19,3.86c-6.24,2.57-13.42,6.41-21.57,11.59
			c-9,5.56-17.18,9.73-24.44,12.53c-1.8,0.68-3.69,1.32-5.67,1.87c2.31-0.59,4.52-1.27,6.6-2.06c7.52-2.82,15.56-6.75,24.14-11.89
			c8.15-4.76,15.56-8.37,22.19-10.94c6.67-2.61,14.29-3.89,22.87-3.89c11.15,0,20.17,3.55,27.03,10.62
			c6.5,6.73,9.94,15.25,10.26,25.65c0.04-0.42,0.04-0.87,0.04-1.3C-156.18-239.47-159.81-248.3-167.12-254.71z M-294.61-212.22
			c7.35,0.3,13.72,1.06,19.13,2.34c-5.35-1.44-11.72-2.27-19.09-2.57C-294.59-212.37-294.61-212.31-294.61-212.22z M-320.94-212.24
			c-0.7,2.97-1.49,5.9-2.34,8.83c1.17-2.97,2.14-5.99,2.95-9.05c-6.75,0.28-12.85,1.06-18.3,2.38
			C-333.27-211.27-327.39-211.99-320.94-212.24z M-341.56-236.39c-6.41-2.8-13.29-6.96-20.58-12.53
			c-6.88-5.18-13.1-9.02-18.69-11.59c-5.56-2.57-12.87-3.86-21.87-3.86c-14.61,0-26.82,4.48-36.69,13.51
			c-9.87,9-14.8,19.75-14.8,32.17c0,0.59,0,1.17,0.04,1.74c0.3-11.91,5.24-22.53,14.76-31.85c9.87-9.66,21.47-14.48,34.76-14.48
			c9.43,0,16.94,1.17,22.53,3.55c5.56,2.36,11.81,6.12,18.66,11.28c6.88,5.14,13.74,9.07,20.6,11.89c2.38,0.96,5.01,1.78,7.94,2.46
			C-337.31-234.75-339.54-235.52-341.56-236.39z"/>
		<path d="M-156.22-227.02c-0.32,11.89-5.24,22.51-14.76,31.83c-9.87,9.66-21.47,14.48-34.76,14.48c-9.43,0-16.94-1.17-22.53-3.55
			c-5.56-2.36-11.81-6.12-18.66-11.28c-6.88-5.14-13.74-9.07-20.6-11.89c-2.34-0.96-4.95-1.76-7.84-2.44
			c2.38,0.64,4.57,1.38,6.56,2.25c6.41,2.8,13.29,6.96,20.58,12.53c6.88,5.18,13.1,9.02,18.69,11.59
			c5.56,2.57,12.87,3.86,21.87,3.86c14.61,0,26.82-4.48,36.69-13.51c9.87-9,14.8-19.75,14.8-32.17
			C-156.18-225.88-156.18-226.45-156.22-227.02z M-289.4-231.76c0.7-2.97,1.47-5.9,2.31-8.83c-1.17,2.97-2.14,5.99-2.95,9.05
			c6.75-0.28,12.85-1.06,18.3-2.38C-277.09-232.73-282.97-232.03-289.4-231.76z M-315.8-231.54c0.02-0.08,0.04-0.15,0.04-0.23
			c-6.99-0.28-13.1-1-18.37-2.14C-328.94-232.61-322.83-231.82-315.8-231.54z M-371.79-195.53c-8.15,4.76-15.54,8.37-22.19,10.94
			c-6.67,2.61-14.29,3.89-22.87,3.89c-11.15,0-20.17-3.55-27.03-10.62c-6.5-6.73-9.94-15.22-10.26-25.63
			c-0.04,0.42-0.04,0.85-0.04,1.27c0,11.15,3.63,19.98,10.94,26.39c7.3,6.46,16.75,9.66,28.33,9.66c8.58,0,15.99-1.3,22.19-3.86
			c6.24-2.57,13.42-6.41,21.57-11.59c9-5.56,17.18-9.73,24.44-12.53c1.8-0.7,3.69-1.32,5.67-1.87c-2.31,0.59-4.52,1.27-6.6,2.06
			C-355.17-204.6-363.21-200.67-371.79-195.53z"/>
		<path d="M-156.22-227.02c-0.32,11.89-5.24,22.51-14.76,31.83c-9.87,9.66-21.47,14.48-34.76,14.48c-9.43,0-16.94-1.17-22.53-3.55
			c-5.56-2.36-11.81-6.12-18.66-11.28c-6.88-5.14-13.74-9.07-20.6-11.89c-2.34-0.96-4.95-1.76-7.84-2.44
			c-0.04,0-0.08-0.02-0.11-0.02c-5.35-1.44-11.72-2.27-19.09-2.57c-0.02,0.08-0.04,0.15-0.04,0.23c-1.7,8.07-2.53,15.95-2.53,23.59
			c0,6.88,0.64,13.82,1.93,20.92c1.27,7.07,2.14,11.7,2.57,13.84c2.99,11.15,4.5,21.02,4.5,29.6c0,15.44-4.71,28.33-14.16,38.6
			c-9.43,10.32-21.23,15.46-35.4,15.46c-12,0-21.34-3.33-27.99-9.96c-6.67-6.67-9.98-15.78-9.98-27.37c0-9.45,2.25-18.24,6.75-26.39
			c4.5-8.13,11.25-18.03,20.28-29.62c7.3-9.41,13.31-17.92,18.01-25.4c2.95-4.67,5.39-9.49,7.33-14.42
			c0.02-0.02,0.02-0.02,0.02-0.04c1.17-2.97,2.14-5.99,2.95-9.05c-6.75,0.28-12.85,1.06-18.3,2.38c-0.83,0.17-1.64,0.38-2.42,0.59
			c-2.31,0.59-4.52,1.27-6.6,2.06c-7.52,2.82-15.56,6.75-24.14,11.89c-8.15,4.76-15.54,8.37-22.19,10.94
			c-6.67,2.61-14.29,3.89-22.87,3.89c-11.15,0-20.17-3.55-27.03-10.62c-6.5-6.73-9.94-15.22-10.26-25.63
			c0.3-11.91,5.24-22.53,14.76-31.85c9.87-9.66,21.47-14.48,34.76-14.48c9.43,0,16.94,1.17,22.53,3.55
			c5.56,2.36,11.81,6.12,18.66,11.28c6.88,5.14,13.74,9.07,20.6,11.89c2.38,0.96,5.01,1.78,7.94,2.46c0.25,0.06,0.51,0.13,0.76,0.19
			c5.18,1.32,11.3,2.1,18.33,2.38c0.02-0.08,0.04-0.15,0.04-0.23c1.7-8.07,2.55-15.95,2.55-23.59c0-6.88-0.66-13.82-1.95-20.92
			c-1.27-7.07-2.14-11.7-2.57-13.84c-2.99-11.15-4.5-21.02-4.5-29.6c0-15.44,4.71-28.33,14.16-38.6
			c9.43-10.32,21.23-15.46,35.4-15.46c12,0,21.34,3.33,27.99,9.96c6.67,6.67,9.98,15.78,9.98,27.37c0,9.45-2.25,18.24-6.75,26.39
			c-4.5,8.13-11.25,18.03-20.28,29.62c-7.3,9.41-13.31,17.9-18.01,25.4c-2.95,4.67-5.41,9.49-7.35,14.44v0.02
			c-1.17,2.97-2.14,5.99-2.95,9.05c6.75-0.28,12.85-1.06,18.3-2.38c0.83-0.19,1.64-0.38,2.42-0.59c2.31-0.59,4.52-1.27,6.6-2.06
			c7.52-2.82,15.56-6.75,24.14-11.89c8.15-4.76,15.56-8.37,22.19-10.94c6.67-2.61,14.29-3.89,22.87-3.89
			c11.15,0,20.17,3.55,27.03,10.62C-159.98-245.94-156.54-237.43-156.22-227.02z"/>
	</g>
</g>
<g>
	<g>
		<path d="M978.39,123.08c-7.15-6.32-16.39-9.46-27.74-9.46c-8.4,0-15.66,1.27-21.73,3.79c-6.11,2.52-13.14,6.28-21.13,11.36
			c-8.82,5.45-16.83,9.53-23.94,12.27c-1.77,0.67-3.62,1.29-5.55,1.83c2.27-0.58,4.43-1.25,6.47-2.02
			c7.36-2.77,15.24-6.61,23.65-11.65c7.99-4.66,15.24-8.19,21.73-10.71c6.53-2.56,14-3.81,22.4-3.81c10.92,0,19.76,3.47,26.48,10.4
			c6.36,6.59,9.73,14.93,10.05,25.12c0.04-0.42,0.04-0.85,0.04-1.27C989.1,138.01,985.54,129.36,978.39,123.08z M853.52,164.7
			c7.2,0.29,13.44,1.04,18.74,2.29c-5.24-1.41-11.48-2.23-18.7-2.52C853.54,164.55,853.52,164.61,853.52,164.7z M827.73,164.68
			c-0.69,2.91-1.46,5.78-2.29,8.65c1.14-2.91,2.1-5.86,2.89-8.86c-6.61,0.27-12.58,1.04-17.93,2.33
			C815.65,165.63,821.41,164.93,827.73,164.68z M807.54,141.03c-6.28-2.75-13.02-6.82-20.15-12.27c-6.74-5.07-12.83-8.84-18.3-11.36
			c-5.45-2.52-12.6-3.79-21.42-3.79c-14.31,0-26.27,4.39-35.94,13.23c-9.67,8.82-14.5,19.34-14.5,31.51c0,0.58,0,1.14,0.04,1.71
			c0.29-11.67,5.14-22.07,14.45-31.2c9.67-9.46,21.03-14.18,34.05-14.18c9.23,0,16.6,1.14,22.07,3.47
			c5.45,2.31,11.56,5.99,18.28,11.04c6.74,5.03,13.46,8.88,20.17,11.65c2.33,0.94,4.91,1.75,7.78,2.41
			C811.7,142.63,809.51,141.88,807.54,141.03z"/>
		<path d="M989.06,150.2c-0.31,11.65-5.14,22.05-14.45,31.18c-9.67,9.46-21.03,14.18-34.05,14.18c-9.23,0-16.6-1.14-22.07-3.47
			c-5.45-2.31-11.56-5.99-18.28-11.04c-6.74-5.03-13.46-8.88-20.17-11.65c-2.29-0.94-4.85-1.73-7.67-2.39
			c2.33,0.62,4.47,1.35,6.43,2.2c6.28,2.75,13.02,6.82,20.15,12.27c6.74,5.07,12.83,8.84,18.3,11.36c5.45,2.52,12.6,3.79,21.42,3.79
			c14.31,0,26.27-4.39,35.94-13.23c9.67-8.82,14.5-19.34,14.5-31.51C989.1,151.32,989.1,150.76,989.06,150.2z M858.62,145.56
			c0.69-2.91,1.44-5.78,2.27-8.65c-1.14,2.91-2.1,5.86-2.89,8.86c6.61-0.27,12.58-1.04,17.93-2.33
			C870.68,144.61,864.92,145.29,858.62,145.56z M832.76,145.77c0.02-0.08,0.04-0.15,0.04-0.23c-6.84-0.27-12.83-0.98-17.99-2.1
			C819.89,144.73,825.88,145.5,832.76,145.77z M777.92,181.04c-7.99,4.66-15.22,8.19-21.73,10.71c-6.53,2.56-14,3.81-22.4,3.81
			c-10.92,0-19.76-3.47-26.48-10.4c-6.36-6.59-9.73-14.91-10.05-25.1c-0.04,0.42-0.04,0.83-0.04,1.25
			c0,10.92,3.56,19.57,10.71,25.85c7.15,6.32,16.41,9.46,27.74,9.46c8.4,0,15.66-1.27,21.73-3.79c6.11-2.52,13.14-6.28,21.13-11.36
			c8.82-5.45,16.83-9.53,23.94-12.27c1.77-0.69,3.62-1.29,5.55-1.83c-2.27,0.58-4.43,1.25-6.47,2.02
			C794.2,172.16,786.32,176.01,777.92,181.04z"/>
		<path d="M989.06,150.2c-0.31,11.65-5.14,22.05-14.45,31.18c-9.67,9.46-21.03,14.18-34.05,14.18c-9.23,0-16.6-1.14-22.07-3.47
			c-5.45-2.31-11.56-5.99-18.28-11.04c-6.74-5.03-13.46-8.88-20.17-11.65c-2.29-0.94-4.85-1.73-7.67-2.39
			c-0.04,0-0.08-0.02-0.1-0.02c-5.24-1.41-11.48-2.23-18.7-2.52c-0.02,0.08-0.04,0.15-0.04,0.23c-1.66,7.9-2.47,15.62-2.47,23.11
			c0,6.74,0.62,13.54,1.89,20.49c1.25,6.93,2.1,11.46,2.52,13.56c2.93,10.92,4.41,20.59,4.41,28.99c0,15.12-4.62,27.74-13.87,37.81
			c-9.23,10.11-20.8,15.14-34.67,15.14c-11.75,0-20.9-3.27-27.41-9.75c-6.53-6.53-9.77-15.45-9.77-26.81
			c0-9.26,2.2-17.87,6.61-25.85c4.41-7.97,11.02-17.66,19.86-29.01c7.15-9.21,13.04-17.55,17.64-24.87
			c2.89-4.58,5.28-9.3,7.18-14.12c0.02-0.02,0.02-0.02,0.02-0.04c1.14-2.91,2.1-5.86,2.89-8.86c-6.61,0.27-12.58,1.04-17.93,2.33
			c-0.81,0.17-1.6,0.37-2.37,0.58c-2.27,0.58-4.43,1.25-6.47,2.02c-7.36,2.77-15.24,6.61-23.65,11.65
			c-7.99,4.66-15.22,8.19-21.73,10.71c-6.53,2.56-14,3.81-22.4,3.81c-10.92,0-19.76-3.47-26.48-10.4
			c-6.36-6.59-9.73-14.91-10.05-25.1c0.29-11.67,5.14-22.07,14.45-31.2c9.67-9.46,21.03-14.18,34.05-14.18
			c9.23,0,16.6,1.14,22.07,3.47c5.45,2.31,11.56,5.99,18.28,11.04c6.74,5.03,13.46,8.88,20.17,11.65c2.33,0.94,4.91,1.75,7.78,2.41
			c0.25,0.06,0.5,0.12,0.75,0.19c5.07,1.29,11.06,2.06,17.95,2.33c0.02-0.08,0.04-0.15,0.04-0.23c1.66-7.9,2.5-15.62,2.5-23.11
			c0-6.74-0.64-13.54-1.91-20.49c-1.25-6.93-2.1-11.46-2.52-13.56c-2.93-10.92-4.41-20.59-4.41-28.99
			c0-15.12,4.62-27.74,13.87-37.81c9.23-10.11,20.8-15.14,34.67-15.14c11.75,0,20.9,3.27,27.41,9.75
			c6.53,6.53,9.77,15.45,9.77,26.81c0,9.26-2.2,17.87-6.61,25.85c-4.41,7.97-11.02,17.66-19.86,29.01
			c-7.15,9.21-13.04,17.53-17.64,24.87c-2.89,4.58-5.3,9.3-7.2,14.14v0.02c-1.14,2.91-2.1,5.86-2.89,8.86
			c6.61-0.27,12.58-1.04,17.93-2.33c0.81-0.19,1.6-0.37,2.37-0.58c2.27-0.58,4.43-1.25,6.47-2.02c7.36-2.77,15.24-6.61,23.65-11.65
			c7.99-4.66,15.24-8.19,21.73-10.71c6.53-2.56,14-3.81,22.4-3.81c10.92,0,19.76,3.47,26.48,10.4
			C985.38,131.67,988.75,140.01,989.06,150.2z"/>
	</g>
	<g>
		<path d="M635.23,123.08c-7.15-6.32-16.39-9.46-27.74-9.46c-8.4,0-15.66,1.27-21.73,3.79c-6.11,2.52-13.14,6.28-21.13,11.36
			c-8.82,5.45-16.83,9.53-23.94,12.27c-1.77,0.67-3.62,1.29-5.55,1.83c2.27-0.58,4.43-1.25,6.47-2.02
			c7.36-2.77,15.24-6.61,23.65-11.65c7.99-4.66,15.24-8.19,21.73-10.71c6.53-2.56,14-3.81,22.4-3.81c10.92,0,19.76,3.47,26.48,10.4
			c6.36,6.59,9.73,14.93,10.05,25.12c0.04-0.42,0.04-0.85,0.04-1.27C645.94,138.01,642.38,129.36,635.23,123.08z M510.36,164.7
			c7.2,0.29,13.44,1.04,18.74,2.29c-5.24-1.41-11.48-2.23-18.7-2.52C510.38,164.55,510.36,164.61,510.36,164.7z M484.57,164.68
			c-0.69,2.91-1.46,5.78-2.29,8.65c1.14-2.91,2.1-5.86,2.89-8.86c-6.61,0.27-12.58,1.04-17.93,2.33
			C472.48,165.63,478.25,164.93,484.57,164.68z M464.37,141.03c-6.28-2.75-13.02-6.82-20.15-12.27c-6.74-5.07-12.83-8.84-18.3-11.36
			c-5.45-2.52-12.6-3.79-21.42-3.79c-14.31,0-26.27,4.39-35.94,13.23c-9.67,8.82-14.5,19.34-14.5,31.51c0,0.58,0,1.14,0.04,1.71
			c0.29-11.67,5.14-22.07,14.45-31.2c9.67-9.46,21.03-14.18,34.05-14.18c9.23,0,16.6,1.14,22.07,3.47
			c5.45,2.31,11.56,5.99,18.28,11.04c6.74,5.03,13.46,8.88,20.17,11.65c2.33,0.94,4.91,1.75,7.78,2.41
			C468.53,142.63,466.35,141.88,464.37,141.03z"/>
		<path d="M645.9,150.2c-0.31,11.65-5.14,22.05-14.45,31.18c-9.67,9.46-21.03,14.18-34.05,14.18c-9.23,0-16.6-1.14-22.07-3.47
			c-5.45-2.31-11.56-5.99-18.28-11.04c-6.74-5.03-13.46-8.88-20.17-11.65c-2.29-0.94-4.85-1.73-7.67-2.39
			c2.33,0.62,4.47,1.35,6.43,2.2c6.28,2.75,13.02,6.82,20.15,12.27c6.74,5.07,12.83,8.84,18.3,11.36c5.45,2.52,12.6,3.79,21.42,3.79
			c14.31,0,26.27-4.39,35.94-13.23c9.67-8.82,14.5-19.34,14.5-31.51C645.94,151.32,645.94,150.76,645.9,150.2z M515.45,145.56
			c0.69-2.91,1.44-5.78,2.27-8.65c-1.14,2.91-2.1,5.86-2.89,8.86c6.61-0.27,12.58-1.04,17.93-2.33
			C527.52,144.61,521.75,145.29,515.45,145.56z M489.6,145.77c0.02-0.08,0.04-0.15,0.04-0.23c-6.84-0.27-12.83-0.98-17.99-2.1
			C476.73,144.73,482.72,145.5,489.6,145.77z M434.76,181.04c-7.99,4.66-15.22,8.19-21.73,10.71c-6.53,2.56-14,3.81-22.4,3.81
			c-10.92,0-19.76-3.47-26.48-10.4c-6.36-6.59-9.73-14.91-10.05-25.1c-0.04,0.42-0.04,0.83-0.04,1.25
			c0,10.92,3.56,19.57,10.71,25.85c7.15,6.32,16.41,9.46,27.74,9.46c8.4,0,15.66-1.27,21.73-3.79c6.11-2.52,13.14-6.28,21.13-11.36
			c8.82-5.45,16.83-9.53,23.94-12.27c1.77-0.69,3.62-1.29,5.55-1.83c-2.27,0.58-4.43,1.25-6.47,2.02
			C451.04,172.16,443.16,176.01,434.76,181.04z"/>
		<path d="M645.9,150.2c-0.31,11.65-5.14,22.05-14.45,31.18c-9.67,9.46-21.03,14.18-34.05,14.18c-9.23,0-16.6-1.14-22.07-3.47
			c-5.45-2.31-11.56-5.99-18.28-11.04c-6.74-5.03-13.46-8.88-20.17-11.65c-2.29-0.94-4.85-1.73-7.67-2.39
			c-0.04,0-0.08-0.02-0.1-0.02c-5.24-1.41-11.48-2.23-18.7-2.52c-0.02,0.08-0.04,0.15-0.04,0.23c-1.66,7.9-2.47,15.62-2.47,23.11
			c0,6.74,0.62,13.54,1.89,20.49c1.25,6.93,2.1,11.46,2.52,13.56c2.93,10.92,4.41,20.59,4.41,28.99c0,15.12-4.62,27.74-13.87,37.81
			c-9.23,10.11-20.8,15.14-34.67,15.14c-11.75,0-20.9-3.27-27.41-9.75c-6.53-6.53-9.77-15.45-9.77-26.81
			c0-9.26,2.2-17.87,6.61-25.85c4.41-7.97,11.02-17.66,19.86-29.01c7.15-9.21,13.04-17.55,17.64-24.87
			c2.89-4.58,5.28-9.3,7.18-14.12c0.02-0.02,0.02-0.02,0.02-0.04c1.14-2.91,2.1-5.86,2.89-8.86c-6.61,0.27-12.58,1.04-17.93,2.33
			c-0.81,0.17-1.6,0.37-2.37,0.58c-2.27,0.58-4.43,1.25-6.47,2.02c-7.36,2.77-15.24,6.61-23.65,11.65
			c-7.99,4.66-15.22,8.19-21.73,10.71c-6.53,2.56-14,3.81-22.4,3.81c-10.92,0-19.76-3.47-26.48-10.4
			c-6.36-6.59-9.73-14.91-10.05-25.1c0.29-11.67,5.14-22.07,14.45-31.2c9.67-9.46,21.03-14.18,34.05-14.18
			c9.23,0,16.6,1.14,22.07,3.47c5.45,2.31,11.56,5.99,18.28,11.04c6.74,5.03,13.46,8.88,20.17,11.65c2.33,0.94,4.91,1.75,7.78,2.41
			c0.25,0.06,0.5,0.12,0.75,0.19c5.07,1.29,11.06,2.06,17.95,2.33c0.02-0.08,0.04-0.15,0.04-0.23c1.66-7.9,2.5-15.62,2.5-23.11
			c0-6.74-0.64-13.54-1.91-20.49c-1.25-6.93-2.1-11.46-2.52-13.56c-2.93-10.92-4.41-20.59-4.41-28.99
			c0-15.12,4.62-27.74,13.87-37.81c9.23-10.11,20.8-15.14,34.67-15.14c11.75,0,20.9,3.27,27.41,9.75
			c6.53,6.53,9.77,15.45,9.77,26.81c0,9.26-2.2,17.87-6.61,25.85c-4.41,7.97-11.02,17.66-19.86,29.01
			c-7.15,9.21-13.04,17.53-17.64,24.87c-2.89,4.58-5.3,9.3-7.2,14.14v0.02c-1.14,2.91-2.1,5.86-2.89,8.86
			c6.61-0.27,12.58-1.04,17.93-2.33c0.81-0.19,1.6-0.37,2.37-0.58c2.27-0.58,4.43-1.25,6.47-2.02c7.36-2.77,15.24-6.61,23.65-11.65
			c7.99-4.66,15.24-8.19,21.73-10.71c6.53-2.56,14-3.81,22.4-3.81c10.92,0,19.76,3.47,26.48,10.4
			C642.21,131.67,645.58,140.01,645.9,150.2z"/>
	</g>
	<g>
		<path d="M292.06,116.84c-7.15-6.32-16.39-9.46-27.74-9.46c-8.4,0-15.66,1.27-21.73,3.79c-6.11,2.52-13.14,6.28-21.13,11.36
			c-8.82,5.45-16.83,9.53-23.94,12.27c-1.77,0.67-3.62,1.29-5.55,1.83c2.27-0.58,4.43-1.25,6.47-2.02
			c7.36-2.77,15.24-6.61,23.65-11.65c7.99-4.66,15.24-8.19,21.73-10.71c6.53-2.56,14-3.81,22.4-3.81c10.92,0,19.76,3.47,26.48,10.4
			c6.36,6.59,9.73,14.93,10.05,25.12c0.04-0.42,0.04-0.85,0.04-1.27C302.77,131.77,299.22,123.12,292.06,116.84z M167.19,158.46
			c7.2,0.29,13.44,1.04,18.74,2.29c-5.24-1.41-11.48-2.23-18.7-2.52C167.22,158.31,167.19,158.37,167.19,158.46z M141.41,158.44
			c-0.69,2.91-1.46,5.78-2.29,8.65c1.14-2.91,2.1-5.86,2.89-8.86c-6.61,0.27-12.58,1.04-17.93,2.33
			C129.32,159.39,135.08,158.69,141.41,158.44z M121.21,134.79c-6.28-2.75-13.02-6.82-20.15-12.27c-6.74-5.07-12.83-8.84-18.3-11.36
			c-5.45-2.52-12.6-3.79-21.42-3.79c-14.31,0-26.27,4.39-35.94,13.23c-9.67,8.82-14.5,19.34-14.5,31.51c0,0.58,0,1.14,0.04,1.71
			c0.29-11.67,5.14-22.07,14.45-31.2c9.67-9.46,21.03-14.18,34.05-14.18c9.23,0,16.6,1.14,22.07,3.47
			c5.45,2.31,11.56,5.99,18.28,11.04c6.74,5.03,13.46,8.88,20.17,11.65c2.33,0.94,4.91,1.75,7.78,2.41
			C125.37,136.39,123.19,135.64,121.21,134.79z"/>
		<path d="M302.73,143.96c-0.31,11.65-5.14,22.05-14.45,31.18c-9.67,9.46-21.03,14.18-34.05,14.18c-9.23,0-16.6-1.14-22.07-3.47
			c-5.45-2.31-11.56-5.99-18.28-11.04c-6.74-5.03-13.46-8.88-20.17-11.65c-2.29-0.94-4.85-1.73-7.67-2.39
			c2.33,0.62,4.47,1.35,6.43,2.2c6.28,2.75,13.02,6.82,20.15,12.27c6.74,5.07,12.83,8.84,18.3,11.36c5.45,2.52,12.6,3.79,21.42,3.79
			c14.31,0,26.27-4.39,35.94-13.23c9.67-8.82,14.5-19.34,14.5-31.51C302.77,145.08,302.77,144.52,302.73,143.96z M172.29,139.32
			c0.69-2.91,1.44-5.78,2.27-8.65c-1.14,2.91-2.1,5.86-2.89,8.86c6.61-0.27,12.58-1.04,17.93-2.33
			C184.35,138.37,178.59,139.05,172.29,139.32z M146.44,139.53c0.02-0.08,0.04-0.15,0.04-0.23c-6.84-0.27-12.83-0.98-17.99-2.1
			C133.56,138.49,139.55,139.26,146.44,139.53z M91.59,174.8c-7.99,4.66-15.22,8.19-21.73,10.71c-6.53,2.56-14,3.81-22.4,3.81
			c-10.92,0-19.76-3.47-26.48-10.4c-6.36-6.59-9.73-14.91-10.05-25.1c-0.04,0.42-0.04,0.83-0.04,1.25
			c0,10.92,3.56,19.57,10.71,25.85c7.15,6.32,16.41,9.46,27.74,9.46c8.4,0,15.66-1.27,21.73-3.79c6.11-2.52,13.14-6.28,21.13-11.36
			c8.82-5.45,16.83-9.53,23.94-12.27c1.77-0.69,3.62-1.29,5.55-1.83c-2.27,0.58-4.43,1.25-6.47,2.02
			C107.88,165.92,100,169.77,91.59,174.8z"/>
		<path d="M302.73,143.96c-0.31,11.65-5.14,22.05-14.45,31.18c-9.67,9.46-21.03,14.18-34.05,14.18c-9.23,0-16.6-1.14-22.07-3.47
			c-5.45-2.31-11.56-5.99-18.28-11.04c-6.74-5.03-13.46-8.88-20.17-11.65c-2.29-0.94-4.85-1.73-7.67-2.39
			c-0.04,0-0.08-0.02-0.1-0.02c-5.24-1.41-11.48-2.23-18.7-2.52c-0.02,0.08-0.04,0.15-0.04,0.23c-1.66,7.9-2.47,15.62-2.47,23.11
			c0,6.74,0.62,13.54,1.89,20.49c1.25,6.93,2.1,11.46,2.52,13.56c2.93,10.92,4.41,20.59,4.41,28.99c0,15.12-4.62,27.74-13.87,37.81
			c-9.23,10.11-20.8,15.14-34.67,15.14c-11.75,0-20.9-3.27-27.41-9.75c-6.53-6.53-9.77-15.45-9.77-26.81
			c0-9.26,2.2-17.87,6.61-25.85c4.41-7.97,11.02-17.66,19.86-29.01c7.15-9.21,13.04-17.55,17.64-24.87
			c2.89-4.58,5.28-9.3,7.18-14.12c0.02-0.02,0.02-0.02,0.02-0.04c1.14-2.91,2.1-5.86,2.89-8.86c-6.61,0.27-12.58,1.04-17.93,2.33
			c-0.81,0.17-1.6,0.37-2.37,0.58c-2.27,0.58-4.43,1.25-6.47,2.02c-7.36,2.77-15.24,6.61-23.65,11.65
			c-7.99,4.66-15.22,8.19-21.73,10.71c-6.53,2.56-14,3.81-22.4,3.81c-10.92,0-19.76-3.47-26.48-10.4
			c-6.36-6.59-9.73-14.91-10.05-25.1c0.29-11.67,5.14-22.07,14.45-31.2c9.67-9.46,21.03-14.18,34.05-14.18
			c9.23,0,16.6,1.14,22.07,3.47c5.45,2.31,11.56,5.99,18.28,11.04c6.74,5.03,13.46,8.88,20.17,11.65c2.33,0.94,4.91,1.75,7.78,2.41
			c0.25,0.06,0.5,0.12,0.75,0.19c5.07,1.29,11.06,2.06,17.95,2.33c0.02-0.08,0.04-0.15,0.04-0.23c1.66-7.9,2.5-15.62,2.5-23.11
			c0-6.74-0.64-13.54-1.91-20.49c-1.25-6.93-2.1-11.46-2.52-13.56c-2.93-10.92-4.41-20.59-4.41-28.99
			c0-15.12,4.62-27.74,13.87-37.81c9.23-10.11,20.8-15.14,34.67-15.14c11.75,0,20.9,3.27,27.41,9.75
			c6.53,6.53,9.77,15.45,9.77,26.81c0,9.26-2.2,17.87-6.61,25.85c-4.41,7.97-11.02,17.66-19.86,29.01
			c-7.15,9.21-13.04,17.53-17.64,24.87c-2.89,4.58-5.3,9.3-7.2,14.14v0.02c-1.14,2.91-2.1,5.86-2.89,8.86
			c6.61-0.27,12.58-1.04,17.93-2.33c0.81-0.19,1.6-0.37,2.37-0.58c2.27-0.58,4.43-1.25,6.47-2.02c7.36-2.77,15.24-6.61,23.65-11.65
			c7.99-4.66,15.24-8.19,21.73-10.71c6.53-2.56,14-3.81,22.4-3.81c10.92,0,19.76,3.47,26.48,10.4
			C299.05,125.43,302.42,133.77,302.73,143.96z"/>
	</g>
</g>
</svg>
