<?xml version="1.0" encoding="utf-8"?>
<!-- Generator: Adobe Illustrator 24.2.3, SVG Export Plug-In . SVG Version: 6.00 Build 0)  -->
<svg version="1.1" id="Ebene_1" xmlns="http://www.w3.org/2000/svg" xmlns:xlink="http://www.w3.org/1999/xlink" x="0px" y="0px"
	 viewBox="0 0 1000 304" style="enable-background:new 0 0 1000 304;" xml:space="preserve">
<g>
	<path d="M638.06,119.29c-7.3-6.46-16.73-9.66-28.33-9.66c-8.58,0-15.99,1.3-22.19,3.86c-6.24,2.57-13.42,6.41-21.57,11.59
		c-9,5.56-17.18,9.73-24.44,12.53c-1.8,0.68-3.69,1.32-5.67,1.87c2.31-0.59,4.52-1.27,6.6-2.06c7.52-2.82,15.56-6.75,24.14-11.89
		c8.15-4.76,15.56-8.37,22.19-10.94c6.67-2.61,14.29-3.89,22.87-3.89c11.15,0,20.17,3.55,27.03,10.62
		c6.5,6.73,9.94,15.25,10.26,25.65c0.04-0.42,0.04-0.87,0.04-1.3C649,134.53,645.37,125.7,638.06,119.29z M510.57,161.78
		c7.35,0.3,13.72,1.06,19.13,2.34c-5.35-1.44-11.72-2.27-19.09-2.57C510.6,161.63,510.57,161.69,510.57,161.78z M484.24,161.76
		c-0.7,2.97-1.49,5.9-2.34,8.83c1.17-2.97,2.14-5.99,2.95-9.05c-6.75,0.28-12.85,1.06-18.3,2.38
		C471.91,162.73,477.79,162.01,484.24,161.76z M463.63,137.61c-6.41-2.8-13.29-6.96-20.58-12.53c-6.88-5.18-13.1-9.02-18.69-11.59
		c-5.56-2.57-12.87-3.86-21.87-3.86c-14.61,0-26.82,4.48-36.69,13.51c-9.87,9-14.8,19.75-14.8,32.17c0,0.59,0,1.17,0.04,1.74
		c0.3-11.91,5.24-22.53,14.76-31.85c9.87-9.66,21.47-14.48,34.76-14.48c9.43,0,16.94,1.17,22.53,3.55
		c5.56,2.36,11.81,6.12,18.66,11.28c6.88,5.14,13.74,9.07,20.6,11.89c2.38,0.96,5.01,1.78,7.94,2.46
		C467.87,139.25,465.64,138.48,463.63,137.61z"/>
	<path d="M648.96,146.98c-0.32,11.89-5.24,22.51-14.76,31.83c-9.87,9.66-21.47,14.48-34.76,14.48c-9.43,0-16.94-1.17-22.53-3.55
		c-5.56-2.36-11.81-6.12-18.66-11.28c-6.88-5.14-13.74-9.07-20.6-11.89c-2.34-0.96-4.95-1.76-7.84-2.44
		c2.38,0.64,4.57,1.38,6.56,2.25c6.41,2.8,13.29,6.96,20.58,12.53c6.88,5.18,13.1,9.02,18.69,11.59c5.56,2.57,12.87,3.86,21.87,3.86
		c14.61,0,26.82-4.48,36.69-13.51c9.87-9,14.8-19.75,14.8-32.17C649,148.12,649,147.55,648.96,146.98z M515.78,142.24
		c0.7-2.97,1.47-5.9,2.31-8.83c-1.17,2.97-2.14,5.99-2.95,9.05c6.75-0.28,12.85-1.06,18.3-2.38
		C528.09,141.27,522.21,141.97,515.78,142.24z M489.38,142.46c0.02-0.08,0.04-0.15,0.04-0.23c-6.99-0.28-13.1-1-18.37-2.14
		C476.24,141.39,482.35,142.18,489.38,142.46z M433.39,178.47c-8.15,4.76-15.54,8.37-22.19,10.94c-6.67,2.61-14.29,3.89-22.87,3.89
		c-11.15,0-20.17-3.55-27.03-10.62c-6.5-6.73-9.94-15.22-10.26-25.63c-0.04,0.42-0.04,0.85-0.04,1.27
		c0,11.15,3.63,19.98,10.94,26.39c7.3,6.46,16.75,9.66,28.33,9.66c8.58,0,15.99-1.3,22.19-3.86c6.24-2.57,13.42-6.41,21.57-11.59
		c9-5.56,17.18-9.73,24.44-12.53c1.8-0.7,3.69-1.32,5.67-1.87c-2.31,0.59-4.52,1.27-6.6,2.06
		C450.01,169.4,441.97,173.33,433.39,178.47z"/>
	<path d="M648.96,146.98c-0.32,11.89-5.24,22.51-14.76,31.83c-9.87,9.66-21.47,14.48-34.76,14.48c-9.43,0-16.94-1.17-22.53-3.55
		c-5.56-2.36-11.81-6.12-18.66-11.28c-6.88-5.14-13.74-9.07-20.6-11.89c-2.34-0.96-4.95-1.76-7.84-2.44c-0.04,0-0.08-0.02-0.11-0.02
		c-5.35-1.44-11.72-2.27-19.09-2.57c-0.02,0.08-0.04,0.15-0.04,0.23c-1.7,8.07-2.53,15.95-2.53,23.59c0,6.88,0.64,13.82,1.93,20.92
		c1.27,7.07,2.14,11.7,2.57,13.84c2.99,11.15,4.5,21.02,4.5,29.6c0,15.44-4.71,28.33-14.16,38.6c-9.43,10.32-21.23,15.46-35.4,15.46
		c-12,0-21.34-3.33-27.99-9.96c-6.67-6.67-9.98-15.78-9.98-27.37c0-9.45,2.25-18.24,6.75-26.39c4.5-8.13,11.25-18.03,20.28-29.62
		c7.3-9.41,13.31-17.92,18.01-25.4c2.95-4.67,5.39-9.49,7.33-14.42c0.02-0.02,0.02-0.02,0.02-0.04c1.17-2.97,2.14-5.99,2.95-9.05
		c-6.75,0.28-12.85,1.06-18.3,2.38c-0.83,0.17-1.64,0.38-2.42,0.59c-2.31,0.59-4.52,1.27-6.6,2.06
		c-7.52,2.82-15.56,6.75-24.14,11.89c-8.15,4.76-15.54,8.37-22.19,10.94c-6.67,2.61-14.29,3.89-22.87,3.89
		c-11.15,0-20.17-3.55-27.03-10.62c-6.5-6.73-9.94-15.22-10.26-25.63c0.3-11.91,5.24-22.53,14.76-31.85
		c9.87-9.66,21.47-14.48,34.76-14.48c9.43,0,16.94,1.17,22.53,3.55c5.56,2.36,11.81,6.12,18.66,11.28
		c6.88,5.14,13.74,9.07,20.6,11.89c2.38,0.96,5.01,1.78,7.94,2.46c0.25,0.06,0.51,0.13,0.76,0.19c5.18,1.32,11.3,2.1,18.33,2.38
		c0.02-0.08,0.04-0.15,0.04-0.23c1.7-8.07,2.55-15.95,2.55-23.59c0-6.88-0.66-13.82-1.95-20.92c-1.27-7.07-2.14-11.7-2.57-13.84
		c-2.99-11.15-4.5-21.02-4.5-29.6c0-15.44,4.71-28.33,14.16-38.6c9.43-10.32,21.23-15.46,35.4-15.46c12,0,21.34,3.33,27.99,9.96
		c6.67,6.67,9.98,15.78,9.98,27.37c0,9.45-2.25,18.24-6.75,26.39c-4.5,8.13-11.25,18.03-20.28,29.62
		c-7.3,9.41-13.31,17.9-18.01,25.4c-2.95,4.67-5.41,9.49-7.35,14.44v0.02c-1.17,2.97-2.14,5.99-2.95,9.05
		c6.75-0.28,12.85-1.06,18.3-2.38c0.83-0.19,1.64-0.38,2.42-0.59c2.31-0.59,4.52-1.27,6.6-2.06c7.52-2.82,15.56-6.75,24.14-11.89
		c8.15-4.76,15.56-8.37,22.19-10.94c6.67-2.61,14.29-3.89,22.87-3.89c11.15,0,20.17,3.55,27.03,10.62
		C645.2,128.06,648.64,136.57,648.96,146.98z"/>
</g>
<g>
	<g>
		<path d="M-225.75-466.71c-7.3-6.46-16.73-9.66-28.33-9.66c-8.58,0-15.99,1.3-22.19,3.86c-6.24,2.57-13.42,6.41-21.57,11.59
			c-9,5.56-17.18,9.73-24.44,12.53c-1.8,0.68-3.69,1.32-5.67,1.87c2.31-0.59,4.52-1.27,6.6-2.06c7.52-2.82,15.56-6.75,24.14-11.89
			c8.15-4.76,15.56-8.37,22.19-10.94c6.67-2.61,14.29-3.89,22.87-3.89c11.15,0,20.17,3.55,27.03,10.62
			c6.5,6.73,9.94,15.25,10.26,25.65c0.04-0.42,0.04-0.87,0.04-1.3C-214.82-451.47-218.45-460.3-225.75-466.71z M-353.24-424.22
			c7.35,0.3,13.72,1.06,19.13,2.34c-5.35-1.44-11.72-2.27-19.09-2.57C-353.22-424.37-353.24-424.31-353.24-424.22z M-379.57-424.24
			c-0.7,2.97-1.49,5.9-2.34,8.83c1.17-2.97,2.14-5.99,2.95-9.05c-6.75,0.28-12.85,1.06-18.3,2.38
			C-391.91-423.27-386.03-423.99-379.57-424.24z M-400.19-448.39c-6.41-2.8-13.29-6.96-20.58-12.53
			c-6.88-5.18-13.1-9.02-18.69-11.59c-5.56-2.57-12.87-3.86-21.87-3.86c-14.61,0-26.82,4.48-36.69,13.51
			c-9.87,9-14.8,19.75-14.8,32.17c0,0.59,0,1.17,0.04,1.74c0.3-11.91,5.24-22.53,14.76-31.85c9.87-9.66,21.47-14.48,34.76-14.48
			c9.43,0,16.94,1.17,22.53,3.55c5.56,2.36,11.81,6.12,18.66,11.28c6.88,5.14,13.74,9.07,20.6,11.89c2.38,0.96,5.01,1.78,7.94,2.46
			C-395.95-446.75-398.18-447.52-400.19-448.39z"/>
		<path d="M-214.86-439.02c-0.32,11.89-5.24,22.51-14.76,31.83c-9.87,9.66-21.47,14.48-34.76,14.48c-9.43,0-16.94-1.17-22.53-3.55
			c-5.56-2.36-11.81-6.12-18.66-11.28c-6.88-5.14-13.74-9.07-20.6-11.89c-2.34-0.96-4.95-1.76-7.84-2.44
			c2.38,0.64,4.57,1.38,6.56,2.25c6.41,2.8,13.29,6.96,20.58,12.53c6.88,5.18,13.1,9.02,18.69,11.59
			c5.56,2.57,12.87,3.86,21.87,3.86c14.61,0,26.82-4.48,36.69-13.51c9.87-9,14.8-19.75,14.8-32.17
			C-214.82-437.88-214.82-438.45-214.86-439.02z M-348.04-443.76c0.7-2.97,1.47-5.9,2.31-8.83c-1.17,2.97-2.14,5.99-2.95,9.05
			c6.75-0.28,12.85-1.06,18.3-2.38C-335.73-444.73-341.61-444.03-348.04-443.76z M-374.44-443.54c0.02-0.08,0.04-0.15,0.04-0.23
			c-6.99-0.28-13.1-1-18.37-2.14C-387.58-444.61-381.46-443.82-374.44-443.54z M-430.43-407.53c-8.15,4.76-15.54,8.37-22.19,10.94
			c-6.67,2.61-14.29,3.89-22.87,3.89c-11.15,0-20.17-3.55-27.03-10.62c-6.5-6.73-9.94-15.22-10.26-25.63
			c-0.04,0.42-0.04,0.85-0.04,1.27c0,11.15,3.63,19.98,10.94,26.39c7.3,6.46,16.75,9.66,28.33,9.66c8.58,0,15.99-1.3,22.19-3.86
			c6.24-2.57,13.42-6.41,21.57-11.59c9-5.56,17.18-9.73,24.44-12.53c1.8-0.7,3.69-1.32,5.67-1.87c-2.31,0.59-4.52,1.27-6.6,2.06
			C-413.8-416.6-421.85-412.67-430.43-407.53z"/>
		<path d="M-214.86-439.02c-0.32,11.89-5.24,22.51-14.76,31.83c-9.87,9.66-21.47,14.48-34.76,14.48c-9.43,0-16.94-1.17-22.53-3.55
			c-5.56-2.36-11.81-6.12-18.66-11.28c-6.88-5.14-13.74-9.07-20.6-11.89c-2.34-0.96-4.95-1.76-7.84-2.44
			c-0.04,0-0.08-0.02-0.11-0.02c-5.35-1.44-11.72-2.27-19.09-2.57c-0.02,0.08-0.04,0.15-0.04,0.23c-1.7,8.07-2.53,15.95-2.53,23.59
			c0,6.88,0.64,13.82,1.93,20.92c1.27,7.07,2.14,11.7,2.57,13.84c2.99,11.15,4.5,21.02,4.5,29.6c0,15.44-4.71,28.33-14.16,38.6
			c-9.43,10.32-21.23,15.46-35.4,15.46c-12,0-21.34-3.33-27.99-9.96c-6.67-6.67-9.98-15.78-9.98-27.37c0-9.45,2.25-18.24,6.75-26.39
			c4.5-8.13,11.25-18.03,20.28-29.62c7.3-9.41,13.31-17.92,18.01-25.4c2.95-4.67,5.39-9.49,7.33-14.42
			c0.02-0.02,0.02-0.02,0.02-0.04c1.17-2.97,2.14-5.99,2.95-9.05c-6.75,0.28-12.85,1.06-18.3,2.38c-0.83,0.17-1.64,0.38-2.42,0.59
			c-2.31,0.59-4.52,1.27-6.6,2.06c-7.52,2.82-15.56,6.75-24.14,11.89c-8.15,4.76-15.54,8.37-22.19,10.94
			c-6.67,2.61-14.29,3.89-22.87,3.89c-11.15,0-20.17-3.55-27.03-10.62c-6.5-6.73-9.94-15.22-10.26-25.63
			c0.3-11.91,5.24-22.53,14.76-31.85c9.87-9.66,21.47-14.48,34.76-14.48c9.43,0,16.94,1.17,22.53,3.55
			c5.56,2.36,11.81,6.12,18.66,11.28c6.88,5.14,13.74,9.07,20.6,11.89c2.38,0.96,5.01,1.78,7.94,2.46c0.25,0.06,0.51,0.13,0.76,0.19
			c5.18,1.32,11.3,2.1,18.33,2.38c0.02-0.08,0.04-0.15,0.04-0.23c1.7-8.07,2.55-15.95,2.55-23.59c0-6.88-0.66-13.82-1.95-20.92
			c-1.27-7.07-2.14-11.7-2.57-13.84c-2.99-11.15-4.5-21.02-4.5-29.6c0-15.44,4.71-28.33,14.16-38.6
			c9.43-10.32,21.23-15.46,35.4-15.46c12,0,21.34,3.33,27.99,9.96c6.67,6.67,9.98,15.78,9.98,27.37c0,9.45-2.25,18.24-6.75,26.39
			c-4.5,8.13-11.25,18.03-20.28,29.62c-7.3,9.41-13.31,17.9-18.01,25.4c-2.95,4.67-5.41,9.49-7.35,14.44v0.02
			c-1.17,2.97-2.14,5.99-2.95,9.05c6.75-0.28,12.85-1.06,18.3-2.38c0.83-0.19,1.64-0.38,2.42-0.59c2.31-0.59,4.52-1.27,6.6-2.06
			c7.52-2.82,15.56-6.75,24.14-11.89c8.15-4.76,15.56-8.37,22.19-10.94c6.67-2.61,14.29-3.89,22.87-3.89
			c11.15,0,20.17,3.55,27.03,10.62C-218.62-457.94-215.18-449.43-214.86-439.02z"/>
	</g>
	<g>
		<path d="M-576.12-466.71c-7.3-6.46-16.73-9.66-28.33-9.66c-8.58,0-15.99,1.3-22.19,3.86c-6.24,2.57-13.42,6.41-21.57,11.59
			c-9,5.56-17.18,9.73-24.44,12.53c-1.8,0.68-3.69,1.32-5.67,1.87c2.31-0.59,4.52-1.27,6.6-2.06c7.52-2.82,15.56-6.75,24.14-11.89
			c8.15-4.76,15.56-8.37,22.19-10.94c6.67-2.61,14.29-3.89,22.87-3.89c11.15,0,20.17,3.55,27.03,10.62
			c6.5,6.73,9.94,15.25,10.26,25.65c0.04-0.42,0.04-0.87,0.04-1.3C-565.18-451.47-568.81-460.3-576.12-466.71z M-703.61-424.22
			c7.35,0.3,13.72,1.06,19.13,2.34c-5.35-1.44-11.72-2.27-19.09-2.57C-703.59-424.37-703.61-424.31-703.61-424.22z M-729.94-424.24
			c-0.7,2.97-1.49,5.9-2.34,8.83c1.17-2.97,2.14-5.99,2.95-9.05c-6.75,0.28-12.85,1.06-18.3,2.38
			C-742.27-423.27-736.39-423.99-729.94-424.24z M-750.56-448.39c-6.41-2.8-13.29-6.96-20.58-12.53
			c-6.88-5.18-13.1-9.02-18.69-11.59c-5.56-2.57-12.87-3.86-21.87-3.86c-14.61,0-26.82,4.48-36.69,13.51
			c-9.87,9-14.8,19.75-14.8,32.17c0,0.59,0,1.17,0.04,1.74c0.3-11.91,5.24-22.53,14.76-31.85c9.87-9.66,21.47-14.48,34.76-14.48
			c9.43,0,16.94,1.17,22.53,3.55c5.56,2.36,11.81,6.12,18.66,11.28c6.88,5.14,13.74,9.07,20.6,11.89c2.38,0.96,5.01,1.78,7.94,2.46
			C-746.31-446.75-748.54-447.52-750.56-448.39z"/>
		<path d="M-565.22-439.02c-0.32,11.89-5.24,22.51-14.76,31.83c-9.87,9.66-21.47,14.48-34.76,14.48c-9.43,0-16.94-1.17-22.53-3.55
			c-5.56-2.36-11.81-6.12-18.66-11.28c-6.88-5.14-13.74-9.07-20.6-11.89c-2.34-0.96-4.95-1.76-7.84-2.44
			c2.38,0.64,4.57,1.38,6.56,2.25c6.41,2.8,13.29,6.96,20.58,12.53c6.88,5.18,13.1,9.02,18.69,11.59
			c5.56,2.57,12.87,3.86,21.87,3.86c14.61,0,26.82-4.48,36.69-13.51c9.87-9,14.8-19.75,14.8-32.17
			C-565.18-437.88-565.18-438.45-565.22-439.02z M-698.4-443.76c0.7-2.97,1.47-5.9,2.31-8.83c-1.17,2.97-2.14,5.99-2.95,9.05
			c6.75-0.28,12.85-1.06,18.3-2.38C-686.09-444.73-691.97-444.03-698.4-443.76z M-724.8-443.54c0.02-0.08,0.04-0.15,0.04-0.23
			c-6.99-0.28-13.1-1-18.37-2.14C-737.94-444.61-731.83-443.82-724.8-443.54z M-780.79-407.53c-8.15,4.76-15.54,8.37-22.19,10.94
			c-6.67,2.61-14.29,3.89-22.87,3.89c-11.15,0-20.17-3.55-27.03-10.62c-6.5-6.73-9.94-15.22-10.26-25.63
			c-0.04,0.42-0.04,0.85-0.04,1.27c0,11.15,3.63,19.98,10.94,26.39c7.3,6.46,16.75,9.66,28.33,9.66c8.58,0,15.99-1.3,22.19-3.86
			c6.24-2.57,13.42-6.41,21.57-11.59c9-5.56,17.18-9.73,24.44-12.53c1.8-0.7,3.69-1.32,5.67-1.87c-2.31,0.59-4.52,1.27-6.6,2.06
			C-764.17-416.6-772.21-412.67-780.79-407.53z"/>
		<path d="M-565.22-439.02c-0.32,11.89-5.24,22.51-14.76,31.83c-9.87,9.66-21.47,14.48-34.76,14.48c-9.43,0-16.94-1.17-22.53-3.55
			c-5.56-2.36-11.81-6.12-18.66-11.28c-6.88-5.14-13.74-9.07-20.6-11.89c-2.34-0.96-4.95-1.76-7.84-2.44
			c-0.04,0-0.08-0.02-0.11-0.02c-5.35-1.44-11.72-2.27-19.09-2.57c-0.02,0.08-0.04,0.15-0.04,0.23c-1.7,8.07-2.53,15.95-2.53,23.59
			c0,6.88,0.64,13.82,1.93,20.92c1.27,7.07,2.14,11.7,2.57,13.84c2.99,11.15,4.5,21.02,4.5,29.6c0,15.44-4.71,28.33-14.16,38.6
			c-9.43,10.32-21.23,15.46-35.4,15.46c-12,0-21.34-3.33-27.99-9.96c-6.67-6.67-9.98-15.78-9.98-27.37c0-9.45,2.25-18.24,6.75-26.39
			c4.5-8.13,11.25-18.03,20.28-29.62c7.3-9.41,13.31-17.92,18.01-25.4c2.95-4.67,5.39-9.49,7.33-14.42
			c0.02-0.02,0.02-0.02,0.02-0.04c1.17-2.97,2.14-5.99,2.95-9.05c-6.75,0.28-12.85,1.06-18.3,2.38c-0.83,0.17-1.64,0.38-2.42,0.59
			c-2.31,0.59-4.52,1.27-6.6,2.06c-7.52,2.82-15.56,6.75-24.14,11.89c-8.15,4.76-15.54,8.37-22.19,10.94
			c-6.67,2.61-14.29,3.89-22.87,3.89c-11.15,0-20.17-3.55-27.03-10.62c-6.5-6.73-9.94-15.22-10.26-25.63
			c0.3-11.91,5.24-22.53,14.76-31.85c9.87-9.66,21.47-14.48,34.76-14.48c9.43,0,16.94,1.17,22.53,3.55
			c5.56,2.36,11.81,6.12,18.66,11.28c6.88,5.14,13.74,9.07,20.6,11.89c2.38,0.96,5.01,1.78,7.94,2.46c0.25,0.06,0.51,0.13,0.76,0.19
			c5.18,1.32,11.3,2.1,18.33,2.38c0.02-0.08,0.04-0.15,0.04-0.23c1.7-8.07,2.55-15.95,2.55-23.59c0-6.88-0.66-13.82-1.95-20.92
			c-1.27-7.07-2.14-11.7-2.57-13.84c-2.99-11.15-4.5-21.02-4.5-29.6c0-15.44,4.71-28.33,14.16-38.6
			c9.43-10.32,21.23-15.46,35.4-15.46c12,0,21.34,3.33,27.99,9.96c6.67,6.67,9.98,15.78,9.98,27.37c0,9.45-2.25,18.24-6.75,26.39
			c-4.5,8.13-11.25,18.03-20.28,29.62c-7.3,9.41-13.31,17.9-18.01,25.4c-2.95,4.67-5.41,9.49-7.35,14.44v0.02
			c-1.17,2.97-2.14,5.99-2.95,9.05c6.75-0.28,12.85-1.06,18.3-2.38c0.83-0.19,1.64-0.38,2.42-0.59c2.31-0.59,4.52-1.27,6.6-2.06
			c7.52-2.82,15.56-6.75,24.14-11.89c8.15-4.76,15.56-8.37,22.19-10.94c6.67-2.61,14.29-3.89,22.87-3.89
			c11.15,0,20.17,3.55,27.03,10.62C-568.98-457.94-565.54-449.43-565.22-439.02z"/>
	</g>
</g>
<g>
	<g>
		<path d="M2124.39,123.08c-7.15-6.32-16.39-9.46-27.74-9.46c-8.4,0-15.66,1.27-21.73,3.79c-6.11,2.52-13.14,6.28-21.13,11.36
			c-8.82,5.45-16.83,9.53-23.94,12.27c-1.77,0.67-3.62,1.29-5.55,1.83c2.27-0.58,4.43-1.25,6.47-2.02
			c7.36-2.77,15.24-6.61,23.65-11.65c7.99-4.66,15.24-8.19,21.73-10.71c6.53-2.56,14-3.81,22.4-3.81c10.92,0,19.76,3.47,26.48,10.4
			c6.36,6.59,9.73,14.93,10.05,25.12c0.04-0.42,0.04-0.85,0.04-1.27C2135.1,138.01,2131.54,129.36,2124.39,123.08z M1999.52,164.7
			c7.2,0.29,13.44,1.04,18.74,2.29c-5.24-1.41-11.48-2.23-18.7-2.52C1999.54,164.55,1999.52,164.61,1999.52,164.7z M1973.73,164.68
			c-0.69,2.91-1.46,5.78-2.29,8.65c1.14-2.91,2.1-5.86,2.89-8.86c-6.61,0.27-12.58,1.04-17.93,2.33
			C1961.65,165.63,1967.41,164.93,1973.73,164.68z M1953.54,141.03c-6.28-2.75-13.02-6.82-20.15-12.27
			c-6.74-5.07-12.83-8.84-18.3-11.36c-5.45-2.52-12.6-3.79-21.42-3.79c-14.31,0-26.27,4.39-35.94,13.23
			c-9.67,8.82-14.5,19.34-14.5,31.51c0,0.58,0,1.14,0.04,1.71c0.29-11.67,5.14-22.07,14.45-31.2c9.67-9.46,21.03-14.18,34.05-14.18
			c9.23,0,16.6,1.14,22.07,3.47c5.45,2.31,11.56,5.99,18.28,11.04c6.74,5.03,13.46,8.88,20.17,11.65c2.33,0.94,4.91,1.75,7.78,2.41
			C1957.7,142.63,1955.51,141.88,1953.54,141.03z"/>
		<path d="M2135.06,150.2c-0.31,11.65-5.14,22.05-14.45,31.18c-9.67,9.46-21.03,14.18-34.05,14.18c-9.23,0-16.6-1.14-22.07-3.47
			c-5.45-2.31-11.56-5.99-18.28-11.04c-6.74-5.03-13.46-8.88-20.17-11.65c-2.29-0.94-4.85-1.73-7.67-2.39
			c2.33,0.62,4.47,1.35,6.43,2.2c6.28,2.75,13.02,6.82,20.15,12.27c6.74,5.07,12.83,8.84,18.3,11.36c5.45,2.52,12.6,3.79,21.42,3.79
			c14.31,0,26.27-4.39,35.94-13.23c9.67-8.82,14.5-19.34,14.5-31.51C2135.1,151.32,2135.1,150.76,2135.06,150.2z M2004.62,145.56
			c0.69-2.91,1.44-5.78,2.27-8.65c-1.14,2.91-2.1,5.86-2.89,8.86c6.61-0.27,12.58-1.04,17.93-2.33
			C2016.68,144.61,2010.92,145.29,2004.62,145.56z M1978.76,145.77c0.02-0.08,0.04-0.15,0.04-0.23c-6.84-0.27-12.83-0.98-17.99-2.1
			C1965.89,144.73,1971.88,145.5,1978.76,145.77z M1923.92,181.04c-7.99,4.66-15.22,8.19-21.73,10.71c-6.53,2.56-14,3.81-22.4,3.81
			c-10.92,0-19.76-3.47-26.48-10.4c-6.36-6.59-9.73-14.91-10.05-25.1c-0.04,0.42-0.04,0.83-0.04,1.25
			c0,10.92,3.56,19.57,10.71,25.85c7.15,6.32,16.41,9.46,27.74,9.46c8.4,0,15.66-1.27,21.73-3.79c6.11-2.52,13.14-6.28,21.13-11.36
			c8.82-5.45,16.83-9.53,23.94-12.27c1.77-0.69,3.62-1.29,5.55-1.83c-2.27,0.58-4.43,1.25-6.47,2.02
			C1940.2,172.16,1932.32,176.01,1923.92,181.04z"/>
		<path d="M2135.06,150.2c-0.31,11.65-5.14,22.05-14.45,31.18c-9.67,9.46-21.03,14.18-34.05,14.18c-9.23,0-16.6-1.14-22.07-3.47
			c-5.45-2.31-11.56-5.99-18.28-11.04c-6.74-5.03-13.46-8.88-20.17-11.65c-2.29-0.94-4.85-1.73-7.67-2.39
			c-0.04,0-0.08-0.02-0.1-0.02c-5.24-1.41-11.48-2.23-18.7-2.52c-0.02,0.08-0.04,0.15-0.04,0.23c-1.66,7.9-2.47,15.62-2.47,23.11
			c0,6.74,0.62,13.54,1.89,20.49c1.25,6.93,2.1,11.46,2.52,13.56c2.93,10.92,4.41,20.59,4.41,28.99c0,15.12-4.62,27.74-13.87,37.81
			c-9.23,10.11-20.8,15.14-34.67,15.14c-11.75,0-20.9-3.27-27.41-9.75c-6.53-6.53-9.78-15.45-9.78-26.81
			c0-9.26,2.2-17.87,6.61-25.85c4.41-7.97,11.02-17.66,19.86-29.01c7.15-9.21,13.04-17.55,17.64-24.87
			c2.89-4.58,5.28-9.3,7.18-14.12c0.02-0.02,0.02-0.02,0.02-0.04c1.14-2.91,2.1-5.86,2.89-8.86c-6.61,0.27-12.58,1.04-17.93,2.33
			c-0.81,0.17-1.6,0.37-2.37,0.58c-2.27,0.58-4.43,1.25-6.47,2.02c-7.36,2.77-15.24,6.61-23.65,11.65
			c-7.99,4.66-15.22,8.19-21.73,10.71c-6.53,2.56-14,3.81-22.4,3.81c-10.92,0-19.76-3.47-26.48-10.4
			c-6.36-6.59-9.73-14.91-10.05-25.1c0.29-11.67,5.14-22.07,14.45-31.2c9.67-9.46,21.03-14.18,34.05-14.18
			c9.23,0,16.6,1.14,22.07,3.47c5.45,2.31,11.56,5.99,18.28,11.04c6.74,5.03,13.46,8.88,20.17,11.65c2.33,0.94,4.91,1.75,7.78,2.41
			c0.25,0.06,0.5,0.12,0.75,0.19c5.07,1.29,11.06,2.06,17.95,2.33c0.02-0.08,0.04-0.15,0.04-0.23c1.66-7.9,2.5-15.62,2.5-23.11
			c0-6.74-0.64-13.54-1.91-20.49c-1.25-6.93-2.1-11.46-2.52-13.56c-2.93-10.92-4.41-20.59-4.41-28.99
			c0-15.12,4.62-27.74,13.87-37.81c9.23-10.11,20.8-15.14,34.67-15.14c11.75,0,20.9,3.27,27.41,9.75
			c6.53,6.53,9.77,15.45,9.77,26.81c0,9.26-2.2,17.87-6.61,25.85c-4.41,7.97-11.02,17.66-19.86,29.01
			c-7.15,9.21-13.04,17.53-17.64,24.87c-2.89,4.58-5.3,9.3-7.2,14.14v0.02c-1.14,2.91-2.1,5.86-2.89,8.86
			c6.61-0.27,12.58-1.04,17.93-2.33c0.81-0.19,1.6-0.37,2.37-0.58c2.27-0.58,4.43-1.25,6.47-2.02c7.36-2.77,15.24-6.61,23.65-11.65
			c7.99-4.66,15.24-8.19,21.73-10.71c6.53-2.56,14-3.81,22.4-3.81c10.92,0,19.76,3.47,26.48,10.4
			C2131.38,131.67,2134.75,140.01,2135.06,150.2z"/>
	</g>
	<g>
		<path d="M1781.23,123.08c-7.15-6.32-16.39-9.46-27.74-9.46c-8.4,0-15.66,1.27-21.73,3.79c-6.11,2.52-13.14,6.28-21.13,11.36
			c-8.82,5.45-16.83,9.53-23.94,12.27c-1.77,0.67-3.62,1.29-5.55,1.83c2.27-0.58,4.43-1.25,6.47-2.02
			c7.36-2.77,15.24-6.61,23.65-11.65c7.99-4.66,15.24-8.19,21.73-10.71c6.53-2.56,14-3.81,22.4-3.81c10.92,0,19.76,3.47,26.48,10.4
			c6.36,6.59,9.73,14.93,10.05,25.12c0.04-0.42,0.04-0.85,0.04-1.27C1791.94,138.01,1788.38,129.36,1781.23,123.08z M1656.36,164.7
			c7.2,0.29,13.44,1.04,18.74,2.29c-5.24-1.41-11.48-2.23-18.7-2.52C1656.38,164.55,1656.36,164.61,1656.36,164.7z M1630.57,164.68
			c-0.69,2.91-1.46,5.78-2.29,8.65c1.14-2.91,2.1-5.86,2.89-8.86c-6.61,0.27-12.58,1.04-17.93,2.33
			C1618.48,165.63,1624.25,164.93,1630.57,164.68z M1610.37,141.03c-6.28-2.75-13.02-6.82-20.15-12.27
			c-6.74-5.07-12.83-8.84-18.3-11.36c-5.45-2.52-12.6-3.79-21.42-3.79c-14.31,0-26.27,4.39-35.94,13.23
			c-9.67,8.82-14.5,19.34-14.5,31.51c0,0.58,0,1.14,0.04,1.71c0.29-11.67,5.14-22.07,14.45-31.2c9.67-9.46,21.03-14.18,34.05-14.18
			c9.23,0,16.6,1.14,22.07,3.47c5.45,2.31,11.56,5.99,18.28,11.04c6.74,5.03,13.46,8.88,20.17,11.65c2.33,0.94,4.91,1.75,7.78,2.41
			C1614.53,142.63,1612.35,141.88,1610.37,141.03z"/>
		<path d="M1791.9,150.2c-0.31,11.65-5.14,22.05-14.45,31.18c-9.67,9.46-21.03,14.18-34.05,14.18c-9.23,0-16.6-1.14-22.07-3.47
			c-5.45-2.31-11.56-5.99-18.28-11.04c-6.74-5.03-13.46-8.88-20.17-11.65c-2.29-0.94-4.85-1.73-7.67-2.39
			c2.33,0.62,4.47,1.35,6.43,2.2c6.28,2.75,13.02,6.82,20.15,12.27c6.74,5.07,12.83,8.84,18.3,11.36c5.45,2.52,12.6,3.79,21.42,3.79
			c14.31,0,26.27-4.39,35.94-13.23c9.67-8.82,14.5-19.34,14.5-31.51C1791.94,151.32,1791.94,150.76,1791.9,150.2z M1661.45,145.56
			c0.69-2.91,1.44-5.78,2.27-8.65c-1.14,2.91-2.1,5.86-2.89,8.86c6.61-0.27,12.58-1.04,17.93-2.33
			C1673.52,144.61,1667.75,145.29,1661.45,145.56z M1635.6,145.77c0.02-0.08,0.04-0.15,0.04-0.23c-6.84-0.27-12.83-0.98-17.99-2.1
			C1622.73,144.73,1628.72,145.5,1635.6,145.77z M1580.76,181.04c-7.99,4.66-15.22,8.19-21.73,10.71c-6.53,2.56-14,3.81-22.4,3.81
			c-10.92,0-19.76-3.47-26.48-10.4c-6.36-6.59-9.73-14.91-10.05-25.1c-0.04,0.42-0.04,0.83-0.04,1.25
			c0,10.92,3.56,19.57,10.71,25.85c7.15,6.32,16.41,9.46,27.74,9.46c8.4,0,15.66-1.27,21.73-3.79c6.11-2.52,13.14-6.28,21.13-11.36
			c8.82-5.45,16.83-9.53,23.94-12.27c1.77-0.69,3.62-1.29,5.55-1.83c-2.27,0.58-4.43,1.25-6.47,2.02
			C1597.04,172.16,1589.16,176.01,1580.76,181.04z"/>
		<path d="M1791.9,150.2c-0.31,11.65-5.14,22.05-14.45,31.18c-9.67,9.46-21.03,14.18-34.05,14.18c-9.23,0-16.6-1.14-22.07-3.47
			c-5.45-2.31-11.56-5.99-18.28-11.04c-6.74-5.03-13.46-8.88-20.17-11.65c-2.29-0.94-4.85-1.73-7.67-2.39
			c-0.04,0-0.08-0.02-0.1-0.02c-5.24-1.41-11.48-2.23-18.7-2.52c-0.02,0.08-0.04,0.15-0.04,0.23c-1.66,7.9-2.47,15.62-2.47,23.11
			c0,6.74,0.62,13.54,1.89,20.49c1.25,6.93,2.1,11.46,2.52,13.56c2.93,10.92,4.41,20.59,4.41,28.99c0,15.12-4.62,27.74-13.87,37.81
			c-9.23,10.11-20.8,15.14-34.67,15.14c-11.75,0-20.9-3.27-27.41-9.75c-6.53-6.53-9.77-15.45-9.77-26.81
			c0-9.26,2.2-17.87,6.61-25.85c4.41-7.97,11.02-17.66,19.86-29.01c7.15-9.21,13.04-17.55,17.64-24.87
			c2.89-4.58,5.28-9.3,7.18-14.12c0.02-0.02,0.02-0.02,0.02-0.04c1.14-2.91,2.1-5.86,2.89-8.86c-6.61,0.27-12.58,1.04-17.93,2.33
			c-0.81,0.17-1.6,0.37-2.37,0.58c-2.27,0.58-4.43,1.25-6.47,2.02c-7.36,2.77-15.24,6.61-23.65,11.65
			c-7.99,4.66-15.22,8.19-21.73,10.71c-6.53,2.56-14,3.81-22.4,3.81c-10.92,0-19.76-3.47-26.48-10.4
			c-6.36-6.59-9.73-14.91-10.05-25.1c0.29-11.67,5.14-22.07,14.45-31.2c9.67-9.46,21.03-14.18,34.05-14.18
			c9.23,0,16.6,1.14,22.07,3.47c5.45,2.31,11.56,5.99,18.28,11.04c6.74,5.03,13.46,8.88,20.17,11.65c2.33,0.94,4.91,1.75,7.78,2.41
			c0.25,0.06,0.5,0.12,0.75,0.19c5.07,1.29,11.06,2.06,17.95,2.33c0.02-0.08,0.04-0.15,0.04-0.23c1.66-7.9,2.5-15.62,2.5-23.11
			c0-6.74-0.64-13.54-1.91-20.49c-1.25-6.93-2.1-11.46-2.52-13.56c-2.93-10.92-4.41-20.59-4.41-28.99
			c0-15.12,4.62-27.74,13.87-37.81c9.23-10.11,20.8-15.14,34.67-15.14c11.75,0,20.9,3.27,27.41,9.75
			c6.53,6.53,9.77,15.45,9.77,26.81c0,9.26-2.2,17.87-6.61,25.85c-4.41,7.97-11.02,17.66-19.86,29.01
			c-7.15,9.21-13.04,17.53-17.64,24.87c-2.89,4.58-5.3,9.3-7.2,14.14v0.02c-1.14,2.91-2.1,5.86-2.89,8.86
			c6.61-0.27,12.58-1.04,17.93-2.33c0.81-0.19,1.6-0.37,2.37-0.58c2.27-0.58,4.43-1.25,6.47-2.02c7.36-2.77,15.24-6.61,23.65-11.65
			c7.99-4.66,15.24-8.19,21.73-10.71c6.53-2.56,14-3.81,22.4-3.81c10.92,0,19.76,3.47,26.48,10.4
			C1788.21,131.67,1791.58,140.01,1791.9,150.2z"/>
	</g>
	<g>
		<path d="M1438.06,116.84c-7.15-6.32-16.39-9.46-27.74-9.46c-8.4,0-15.66,1.27-21.73,3.79c-6.11,2.52-13.14,6.28-21.13,11.36
			c-8.82,5.45-16.83,9.53-23.94,12.27c-1.77,0.67-3.62,1.29-5.55,1.83c2.27-0.58,4.43-1.25,6.47-2.02
			c7.36-2.77,15.24-6.61,23.65-11.65c7.99-4.66,15.24-8.19,21.73-10.71c6.53-2.56,14-3.81,22.4-3.81c10.92,0,19.76,3.47,26.48,10.4
			c6.36,6.59,9.73,14.93,10.05,25.12c0.04-0.42,0.04-0.85,0.04-1.27C1448.78,131.77,1445.22,123.12,1438.06,116.84z M1313.19,158.46
			c7.2,0.29,13.44,1.04,18.74,2.29c-5.24-1.41-11.48-2.23-18.7-2.52C1313.22,158.31,1313.19,158.37,1313.19,158.46z M1287.41,158.44
			c-0.69,2.91-1.46,5.78-2.29,8.65c1.14-2.91,2.1-5.86,2.89-8.86c-6.61,0.27-12.58,1.04-17.93,2.33
			C1275.32,159.39,1281.08,158.69,1287.41,158.44z M1267.21,134.79c-6.28-2.75-13.02-6.82-20.15-12.27
			c-6.74-5.07-12.83-8.84-18.3-11.36c-5.45-2.52-12.6-3.79-21.42-3.79c-14.31,0-26.27,4.39-35.94,13.23
			c-9.67,8.82-14.5,19.34-14.5,31.51c0,0.58,0,1.14,0.04,1.71c0.29-11.67,5.14-22.07,14.45-31.2c9.67-9.46,21.03-14.18,34.05-14.18
			c9.23,0,16.6,1.14,22.07,3.47c5.45,2.31,11.56,5.99,18.28,11.04c6.74,5.03,13.46,8.88,20.17,11.65c2.33,0.94,4.91,1.75,7.78,2.41
			C1271.37,136.39,1269.19,135.64,1267.21,134.79z"/>
		<path d="M1448.73,143.96c-0.31,11.65-5.14,22.05-14.45,31.18c-9.67,9.46-21.03,14.18-34.05,14.18c-9.23,0-16.6-1.14-22.07-3.47
			c-5.45-2.31-11.56-5.99-18.28-11.04c-6.74-5.03-13.46-8.88-20.17-11.65c-2.29-0.94-4.85-1.73-7.67-2.39
			c2.33,0.62,4.47,1.35,6.43,2.2c6.28,2.75,13.02,6.82,20.15,12.27c6.74,5.07,12.83,8.84,18.3,11.36c5.45,2.52,12.6,3.79,21.42,3.79
			c14.31,0,26.27-4.39,35.94-13.23c9.67-8.82,14.5-19.34,14.5-31.51C1448.78,145.08,1448.78,144.52,1448.73,143.96z M1318.29,139.32
			c0.69-2.91,1.44-5.78,2.27-8.65c-1.14,2.91-2.1,5.86-2.89,8.86c6.61-0.27,12.58-1.04,17.93-2.33
			C1330.35,138.37,1324.59,139.05,1318.29,139.32z M1292.44,139.53c0.02-0.08,0.04-0.15,0.04-0.23c-6.84-0.27-12.83-0.98-17.99-2.1
			C1279.56,138.49,1285.55,139.26,1292.44,139.53z M1237.59,174.8c-7.99,4.66-15.22,8.19-21.73,10.71c-6.53,2.56-14,3.81-22.4,3.81
			c-10.92,0-19.76-3.47-26.48-10.4c-6.36-6.59-9.73-14.91-10.05-25.1c-0.04,0.42-0.04,0.83-0.04,1.25
			c0,10.92,3.56,19.57,10.71,25.85c7.15,6.32,16.41,9.46,27.74,9.46c8.4,0,15.66-1.27,21.73-3.79c6.11-2.52,13.14-6.28,21.13-11.36
			c8.82-5.45,16.83-9.53,23.94-12.27c1.77-0.69,3.62-1.29,5.55-1.83c-2.27,0.58-4.43,1.25-6.47,2.02
			C1253.88,165.92,1246,169.77,1237.59,174.8z"/>
		<path d="M1448.73,143.96c-0.31,11.65-5.14,22.05-14.45,31.18c-9.67,9.46-21.03,14.18-34.05,14.18c-9.23,0-16.6-1.14-22.07-3.47
			c-5.45-2.31-11.56-5.99-18.28-11.04c-6.74-5.03-13.46-8.88-20.17-11.65c-2.29-0.94-4.85-1.73-7.67-2.39
			c-0.04,0-0.08-0.02-0.1-0.02c-5.24-1.41-11.48-2.23-18.7-2.52c-0.02,0.08-0.04,0.15-0.04,0.23c-1.66,7.9-2.47,15.62-2.47,23.11
			c0,6.74,0.62,13.54,1.89,20.49c1.25,6.93,2.1,11.46,2.52,13.56c2.93,10.92,4.41,20.59,4.41,28.99c0,15.12-4.62,27.74-13.87,37.81
			c-9.23,10.11-20.8,15.14-34.67,15.14c-11.75,0-20.9-3.27-27.41-9.75c-6.53-6.53-9.77-15.45-9.77-26.81
			c0-9.26,2.2-17.87,6.61-25.85c4.41-7.97,11.02-17.66,19.86-29.01c7.15-9.21,13.04-17.55,17.64-24.87
			c2.89-4.58,5.28-9.3,7.18-14.12c0.02-0.02,0.02-0.02,0.02-0.04c1.14-2.91,2.1-5.86,2.89-8.86c-6.61,0.27-12.58,1.04-17.93,2.33
			c-0.81,0.17-1.6,0.37-2.37,0.58c-2.27,0.58-4.43,1.25-6.47,2.02c-7.36,2.77-15.24,6.61-23.65,11.65
			c-7.99,4.66-15.22,8.19-21.73,10.71c-6.53,2.56-14,3.81-22.4,3.81c-10.92,0-19.76-3.47-26.48-10.4
			c-6.36-6.59-9.73-14.91-10.05-25.1c0.29-11.67,5.14-22.07,14.45-31.2c9.67-9.46,21.03-14.18,34.05-14.18
			c9.23,0,16.6,1.14,22.07,3.47c5.45,2.31,11.56,5.99,18.28,11.04c6.74,5.03,13.46,8.88,20.17,11.65c2.33,0.94,4.91,1.75,7.78,2.41
			c0.25,0.06,0.5,0.12,0.75,0.19c5.07,1.29,11.06,2.06,17.95,2.33c0.02-0.08,0.04-0.15,0.04-0.23c1.66-7.9,2.5-15.62,2.5-23.11
			c0-6.74-0.64-13.54-1.91-20.49c-1.25-6.93-2.1-11.46-2.52-13.56c-2.93-10.92-4.41-20.59-4.41-28.99
			c0-15.12,4.62-27.74,13.87-37.81c9.23-10.11,20.8-15.14,34.67-15.14c11.75,0,20.9,3.27,27.41,9.75
			c6.53,6.53,9.78,15.45,9.78,26.81c0,9.26-2.2,17.87-6.61,25.85c-4.41,7.97-11.02,17.66-19.86,29.01
			c-7.15,9.21-13.04,17.53-17.64,24.87c-2.89,4.58-5.3,9.3-7.2,14.14v0.02c-1.14,2.91-2.1,5.86-2.89,8.86
			c6.61-0.27,12.58-1.04,17.93-2.33c0.81-0.19,1.6-0.37,2.37-0.58c2.27-0.58,4.43-1.25,6.47-2.02c7.36-2.77,15.24-6.61,23.65-11.65
			c7.99-4.66,15.24-8.19,21.73-10.71c6.53-2.56,14-3.81,22.4-3.81c10.92,0,19.76,3.47,26.48,10.4
			C1445.05,125.43,1448.42,133.77,1448.73,143.96z"/>
	</g>
</g>
</svg>
